<?xml version="1.0" encoding="UTF-8"?><svg id="Layer_2" xmlns="http://www.w3.org/2000/svg" viewBox="0 0 339.1 298.93"><defs><style>.cls-1,.cls-2,.cls-3,.cls-4,.cls-5,.cls-6,.cls-7{fill:none;}.cls-1,.cls-2,.cls-4,.cls-5,.cls-6{stroke-linecap:round;stroke-linejoin:round;}.cls-1,.cls-4,.cls-5,.cls-6{stroke-width:.5px;}.cls-1,.cls-7{stroke:#407bff;}.cls-2{stroke-width:.75px;}.cls-2,.cls-5{stroke:#263238;}.cls-8,.cls-9{fill:#fff;}.cls-3{stroke:#fff;}.cls-3,.cls-7{stroke-miterlimit:10;}.cls-9{opacity:.4;}.cls-10,.cls-6{opacity:.2;}.cls-11{fill:#de5753;}.cls-4,.cls-6{stroke:#000;}.cls-12{opacity:.3;}.cls-13{fill:#cd7a63;}.cls-14{fill:#407bff;}.cls-15{fill:#ad6359;}.cls-16{fill:#263238;}</style></defs><g id="Character"><g><g><g><g><g><g><path class="cls-13" d="m150.66,40.65s-4.21-4.55-7.35-15.33c0,0-.62.08-.63.07-.44-1.5-.8-2.93-1.09-4.18-.01-.03-.02-.04-.02-.04l-7.57,15.6c2.14,2.73,4.67,9.02,5.55,11.79,0,0,1.16,5.3,7,1.86,4.27-2.52,4.1-9.77,4.1-9.77Z"/><path class="cls-10" d="m136.39,41l6.14-6.17c.76,2.64.47,6.54-4.39,9.92,0,0-1.09-2.81-1.76-3.75Z"/></g><g><path class="cls-16" d="m111.74,20.71c.36,3.81,3.86,10.48,7.62,6.25,3.75-4.23-8.24-12.8-7.62-6.25Z"/><path class="cls-13" d="m137.84,15.05c4.17,8.43,6.69,13.1,4.95,19.61-2.63,9.79-14.55,11.79-21.17,4.75-5.96-6.33-11.78-19.06-5.61-26.8,6.08-7.63,17.66-5.99,21.83,2.44Z"/><path class="cls-16" d="m133.66,4.7c-3.69-3.85-15.38,2.52-17.2,6.62-.27.61,8.31.14,7.82.22l3.76-.71c.42-.38,1.69-.36,3.05.86,0,0,3.75,9.31,9.36,10.89,2.6-3.66,2.74-5.66,1.95-9.12-1.18-5.16-5.47-7.32-8.73-8.75Z"/><path class="cls-16" d="m127.53,24.09c.48.83.42,1.76-.13,2.07-.55.31-1.38-.12-1.86-.95-.48-.83-.42-1.76.13-2.07.55-.31,1.38.12,1.86.95Z"/><path class="cls-16" d="m119.45,28.94c.48.83.42,1.76-.13,2.07-.55.31-1.38-.12-1.86-.95-.48-.83-.42-1.76.13-2.07.55-.31,1.38.12,1.86.95Z"/><path class="cls-15" d="m121.84,26.95s-.26,5.65-.14,7.83c1.76.38,3.48-1.25,3.48-1.25l-3.34-6.58Z"/><path class="cls-16" d="m127.31,18.99c-.1.12-.26.19-.42.17-1.99-.28-3.11.94-3.12.95-.16.19-.45.2-.64.04-.19-.16-.2-.45-.04-.63.06-.07,1.45-1.6,3.93-1.25.25.04.42.26.38.51-.01.08-.04.15-.09.21Z"/></g></g><g><path d="m132.99,28.73l-5.34,6.77c.89.49,1.79.98,2.78,1.22.99.24,1.9.02,2.76-.51,1.24-.75,1.93-2.19,1.72-3.63-.21-1.44-1.02-2.71-1.92-3.85Z"/><path class="cls-8" d="m128.08,34.95s1.02.55,1.53.4c.51-.15,4.27-5.41,4.27-5.41l-.89-1.23-4.91,6.23Z"/><path class="cls-11" d="m132.25,36.65s-.44-1.43.6-2.91c1.04-1.48,1.97-1.66,1.97-1.66,0,0,.51,1.7-.5,3.06-1.01,1.36-2.07,1.51-2.07,1.51Z"/></g><path class="cls-16" d="m113.82,27.49c-.08.03-.17.03-.26,0-.24-.07-.38-.32-.31-.55.67-2.39,2.64-3,2.73-3.04.24-.07.49.06.57.3.07.24-.05.49-.29.56-.08.02-1.6.52-2.13,2.43-.04.15-.16.26-.29.3Z"/></g><path class="cls-16" d="m105.95,29.77s3.46.82,6.11-.12c1.08-.38,5.09-4.02,5.09-4.02,0,0,11.21-10.81,13.18-10.63,1.97.18,6.21,6.96,6.21,6.96l.37-.11,6.95-1.27s-.28-3.62-.61-6.24c-.33-2.61-1.22-8.64-1.22-8.64l-16.63,6.49-19.46,17.6Z"/><path class="cls-14" d="m105.95,29.77s.22-.52-.23-.96c-2.72-2.66-.86-17.45,10.19-24.65,13.21-8.61,23.11-1.45,25.09.05l1.03,1.48s-13.21,5.57-14.65,6.57c-4.3,2.99-13.91,12.98-17.54,15.75-3.03,2.31-3.89,1.77-3.89,1.77Z"/><g><path class="cls-13" d="m144.95,20c.55,2.47-.1,4.96-1.25,6.69-1.74,2.6-4.67,1.54-5.91-1.15-1.12-2.43-1.56-6.71,1.01-8.37,2.54-1.64,5.52.01,6.15,2.84Z"/><path class="cls-6" d="m141.79,18.81c-.61-.3-1.38-.09-1.87.37s-.73,1.15-.81,1.82c-.09.81.03,1.64.35,2.38"/></g><path class="cls-16" d="m135.86,3.89c-3.02-.3-6.17,1.02-9.06,2.46-6.54,3.25-12.99,7.55-16.82,13.59-.3.48-2.84,4.2-2.43,4.68.47.56,2.8-2.79,3.12-3.16,1.65-1.88,3.42-3.66,5.3-5.35,3.75-3.36,7.91-6.31,12.33-8.72,1.22-.67,2.47-1.3,3.73-1.88.84-.39,2.96-1.71,3.83-1.63Z"/><path class="cls-16" d="m112.91,12.5c.84-.9,1.53-1.48,2.28-2.46.07-.09.14-.2.1-.31-.04-.11-.17-.16-.29-.17-.71-.1-1.42.2-2.01.6-1.44.97-2.29,2.1-2.86,3.74-.13.36-.36,1.33-.24,1.7.29.85.98-.18,1.29-.58.62-.8,1.12-1.86,1.73-2.52Z"/><path class="cls-16" d="m125.33,2.93c-.51-.04-1.02.09-1.51.23-.9.27-1.94.61-2.8,1.1-1.17.54-2.25,1.21-3.2,2.01-.27.23-.48.93-.2,1.15.17.14.42.06.62-.01,2.47-.96,4.87-2.1,7.18-3.41.28-.16.6-.42.5-.73-.07-.23-.35-.32-.6-.34Z"/><path class="cls-16" d="m134.89,19.51s6.12,14.82,5.65,16.12c-1.95,5.4-5.28,7.3-5.28,7.3,0,0,.57.31,2.4-1.13,1.83-1.45,3.89-3.18,4.38-5.07s-2.73-9.87-3.18-12.09c-.45-2.21-1.88-6.21-1.88-6.21l-2.1,1.08Z"/><polygon class="cls-16" points="141.25 33.43 144.22 28.2 143.69 26.69 140.84 31.36 141.25 33.43"/></g><path class="cls-1" d="m102.96,21.77c.7-5.29,3.05-10.36,6.64-14.31"/></g><g><g><polygon class="cls-13" points="204.77 275.81 200.91 279.09 193.57 276.09 189.8 260.29 203.87 257.23 204.77 275.81"/><g><path class="cls-14" d="m191.84,274.33l3.67-.16c.83-.04,1.62.35,2.14,1,2.25,2.8,3.79,1.63,5.97-1.19,1.46-.24,1.93,1.43,2.06,1.87l3.19,9.86c.28.82-.17,1.71-.99,1.99-.15.05-.3.08-.45.08-4.46.2-6.57.29-12.12.54l-16.97.75c-4.63.2-5.79-4.42-3.91-4.93,8.49-2.27,14.44-5.06,16.98-7.68.47-.46-.05-.76.43-2.14Z"/><path class="cls-5" d="m189.42,277.27c1.27.12,2.48.82,3.21,1.87"/><path class="cls-5" d="m187.21,279.09c1.27.12,2.48.82,3.21,1.87"/><path class="cls-5" d="m184.44,280.66c1.27.12,2.48.82,3.21,1.87"/></g></g><path class="cls-16" d="m194.59,113.63c-1.06,1.29-8.57,73.8-8.57,73.8,0,0-.54,80.44.85,79.5l20.4-.95,6.2-79.24,17.15-71.38s13-19.11,4.19-30.9l-42.96,9.97,2.75,19.19Z"/><path class="cls-12" d="m194.59,113.63c-1.06,1.29-8.57,73.8-8.57,73.8,0,0-.54,80.44.85,79.5l20.4-.95,6.2-79.24,17.15-71.38s13-19.11,4.19-30.9l-42.96,9.97,2.75,19.19Z"/><path d="m191.99,132.5c.8-.93,39.43-15.31,38.06-14.8s-2.46,10.23-2.46,10.23l-36.23,9.33.64-4.76Z"/></g><g id="freepik--Character--inject-280"><path class="cls-16" d="m271.32,171.91c32.71.04,59.22,26.54,59.26,59.26,0,32.73-26.53,59.26-59.26,59.26s-59.26-26.53-59.26-59.26,26.53-59.26,59.26-59.26m.01-8.51h0c-37.42,0-67.76,30.34-67.76,67.76h0c0,37.43,30.35,67.77,67.77,67.76s67.76-30.35,67.75-67.77c0-37.42-30.35-67.76-67.77-67.75h.01Z"/><path class="cls-14" d="m271.32,174.44c31.31.04,56.69,25.41,56.71,56.73h0c0,31.34-25.41,56.73-56.74,56.73-31.33,0-56.72-25.41-56.71-56.74,0-31.33,25.41-56.72,56.74-56.71m-64.86,56.73c0,35.82,29.04,64.86,64.86,64.86s64.86-29.04,64.86-64.86-29.04-64.86-64.86-64.86-64.86,29.04-64.86,64.86Z"/><path class="cls-16" d="m67.76,171.91c32.71.04,59.22,26.54,59.26,59.26h0c0,32.74-26.54,59.26-59.27,59.26-32.73,0-59.25-26.54-59.25-59.27s26.54-59.25,59.27-59.24m-.01-8.51C30.34,163.41,0,193.74,0,231.17s30.34,67.76,67.76,67.76,67.76-30.34,67.76-67.76-30.34-67.76-67.76-67.76h0Z"/><path class="cls-14" d="m67.77,174.44c31.31.04,56.69,25.41,56.71,56.73h0c0,31.34-25.41,56.73-56.74,56.73-31.33,0-56.72-25.41-56.71-56.74s25.41-56.72,56.74-56.71M2.91,231.17c0,35.82,29.04,64.86,64.86,64.86s64.86-29.04,64.86-64.86-29.04-64.86-64.86-64.86S2.91,195.35,2.91,231.17Z"/><circle class="cls-16" cx="271.32" cy="231.17" r="10.45" transform="translate(-.44 461.81) rotate(-80.75)"/><circle class="cls-16" cx="67.77" cy="231.17" r="10.45" transform="translate(-143.61 115.63) rotate(-45)"/><path class="cls-16" d="m271.34,223.86c3.24.02,6.07,2.17,6.96,5.29,1.1,3.86-1.15,7.89-5.01,8.98h-.12l-89.43,28.71c-1,.25-2.02.37-3.04.37-5.74.01-10.77-3.87-12.21-9.43-1.75-6.73,2.29-13.6,9.02-15.35l91.62-18.27h.23c.64-.18,1.3-.27,1.97-.28h0m0-3.23c-.95,0-1.9.13-2.82.39l-91.71,18.33c-6.98,1.78-11.87,8.07-11.88,15.27,0,8.71,7.05,15.79,15.76,15.8,1.32,0,2.63-.16,3.91-.49l89.53-28.71c4.66-1.22,7.88-5.45,7.82-10.27-.08-5.78-4.83-10.4-10.6-10.32h-.01Z"/><g><path class="cls-14" d="m178.2,256.7l-90.49-110.79c-1.03-1.34-.84-3.25.43-4.36,1.33-1.16,3.34-1.01,4.5.32l87.19,106.69,54.7-129.59c.68-1.62,2.55-2.39,4.18-1.7,1.62.68,2.39,2.56,1.7,4.18l-56.77,134.51c-.44,1.03-1.38,1.76-2.49,1.91-.15.01-.3.01-.46,0-.97,0-1.89-.42-2.5-1.17Z"/><path class="cls-14" d="m269.4,232.07l-42.66-90.08c-.04-.07-.07-.13-.1-.2-.45-1.09.07-2.33,1.16-2.78,1.09-.45,2.33.07,2.78,1.16l42.67,90.08c.14.29.21.6.21.92,0,1.17-.96,2.12-2.13,2.12-.82,0-1.57-.48-1.92-1.22Z"/><path class="cls-14" d="m66.98,234.22c-1.71-.44-2.73-2.18-2.3-3.88l26.28-102.25c.39-1.52,1.82-2.52,3.38-2.38l134.61,12.17c1.76.16,3.06,1.72,2.9,3.48-.16,1.76-1.72,3.06-3.48,2.9l-131.91-11.93-25.6,99.63c-.36,1.41-1.63,2.4-3.09,2.4-.27,0-.54-.06-.8-.14Z"/><path class="cls-14" d="m93.57,132.06s0,0,0,0c-1.74-.25-2.95-1.87-2.7-3.61l3.86-26.34c.26-1.74,1.88-2.95,3.62-2.7,1.74.26,2.95,1.88,2.7,3.62l-3.8,26.33c-.23,1.58-1.59,2.75-3.19,2.73-.16,0-.33,0-.49-.03Z"/></g><path class="cls-16" d="m188.06,289.1l-18.8-67.76c-.25-1.07.37-2.16,1.41-2.5,1.12-.37,2.32.24,2.68,1.36l18.8,67.8c.05.18.08.37.08.57,0,1.17-.95,2.13-2.13,2.12-.96,0-1.8-.66-2.04-1.59Z"/><path class="cls-16" d="m163.9,220.78c0-1.17.95-2.13,2.13-2.13h18.79c1.17,0,2.13.95,2.13,2.13s-.95,2.13-2.13,2.13h-18.79c-1.17,0-2.13-.95-2.13-2.13Z"/><path class="cls-16" d="m181.38,290.25c0-1.17.95-2.13,2.13-2.13h18.79c1.17,0,2.13.95,2.13,2.13s-.95,2.13-2.13,2.13h-18.79c-1.17,0-2.13-.95-2.13-2.13Z"/><g class="cls-12"><path d="m178.2,256.7l-90.49-110.79c-1.03-1.34-.84-3.25.43-4.36,1.33-1.16,3.34-1.01,4.5.32l87.19,106.69,54.7-129.59c.68-1.62,2.55-2.39,4.18-1.7,1.62.68,2.39,2.56,1.7,4.18l-56.77,134.51c-.44,1.03-1.38,1.76-2.49,1.91-.15.01-.3.01-.46,0-.97,0-1.89-.42-2.5-1.17Z"/><path d="m269.4,232.07l-42.66-90.08c-.04-.07-.07-.13-.1-.2-.45-1.09.07-2.33,1.16-2.78,1.09-.45,2.33.07,2.78,1.16l42.67,90.08c.14.29.21.6.21.92,0,1.17-.96,2.12-2.13,2.12-.82,0-1.57-.48-1.92-1.22Z"/><path d="m66.98,234.22c-1.71-.44-2.73-2.18-2.3-3.88l26.28-102.25c.39-1.52,1.82-2.52,3.38-2.38l134.61,12.17c1.76.16,3.06,1.72,2.9,3.48-.16,1.76-1.72,3.06-3.48,2.9l-131.91-11.93-25.6,99.63c-.36,1.41-1.63,2.4-3.09,2.4-.27,0-.54-.06-.8-.14Z"/><path d="m93.57,132.06s0,0,0,0c-1.74-.25-2.95-1.87-2.7-3.61l3.86-26.34c.26-1.74,1.88-2.95,3.62-2.7,1.74.26,2.95,1.88,2.7,3.62l-3.8,26.33c-.23,1.58-1.59,2.75-3.19,2.73-.16,0-.33,0-.49-.03Z"/></g><path class="cls-14" d="m245.51,108c-4.97,1.95-40.68-.23-43.12,5.32-2.43,5.55,13.82.83,20.96,3.19,7.13,2.36,30.66,10.27,36.23,3.19,9.53-12.17-3.55-15.83-14.07-11.7Z"/><path class="cls-2" d="m18.19,237.65c-1.5-9.39-.1-19.23,3.95-27.83,4.06-8.6,10.76-15.93,18.97-20.74"/><path class="cls-2" d="m110.02,235.68c.31,3.29-.67,7.59-1.86,10.88-1.28,3.54-3,6.67-5.64,9.35"/><path class="cls-14" d="m113.22,141.78c-.13,0-.26-.01-.4-.04l-31.16-5.86c-1.95-.07-3.78-.95-5.06-2.43-1.32-1.53-1.92-3.56-1.64-5.57l2.71-19.43c.03-.24.05-.54.08-.87.15-2.04.5-6.81,4.68-7.19,2.26-.2,5.1-.43,7.74-.64,3.25-.26,6.94-.55,7.52-.66,1.14-.2,2.26.53,2.49,1.66.23,1.14-.46,2.24-1.6,2.49-.63.14-2.71.31-8.08.74-2.63.21-5.45.43-7.7.64-.39.04-.67,1.13-.83,3.27-.03.44-.06.84-.11,1.15l-2.71,19.43c-.11.8.12,1.59.65,2.2.53.61,1.27.96,2.08.96.13,0,.25.01.38.04l31.33,5.89c1.15.22,1.91,1.33,1.7,2.48-.19,1.02-1.09,1.73-2.09,1.73Z"/><g><path class="cls-2" d="m262.11,181.3c9.25-2.19,19.16-1.53,28.04,1.88,8.88,3.41,16.69,9.55,22.09,17.38"/><path class="cls-2" d="m270.89,272.73c-3.26.56-7.62-.11-10.99-1.05-3.62-1.01-6.88-2.5-9.74-4.93"/></g><path class="cls-4" d="m7.92,189.21c7.54-12.61,20.52-21.61,34.72-26.43"/></g><path class="cls-16" d="m180.68,238.9c-8.71,0-15.76,7.07-15.76,15.78h0c0,8.71,7.06,15.78,15.78,15.78s15.78-7.06,15.78-15.78-7.06-15.78-15.78-15.78h-.02Z"/><g><path class="cls-13" d="m98.05,107.35l-10.02,5.09-3.15-4.81s-6.33-1.29-7.83-.3c-1.5.99-3.29,4.46-3.29,4.46,0,0-2,2.79.68,4.67,0,0-2.1,2.45.91,4.68,0,0-2.52,1.07.73,2.86s6.04,1.27,8.21.75c2.17-.52,6.11-1.79,6.11-1.79l10.44-4.8-2.8-10.81Z"/><path class="cls-13" d="m151.06,75.91c-.46,1.73-16.62,25.43-19.07,27.5-3.25,2.75-36.71,17.18-36.71,17.18l-5.26-8.15,29.47-18.64,17.89-24.01,13.68,6.12Z"/></g><g><path class="cls-14" d="m139.45,50.15c.97-.89,7.97-14.06,7.97-14.06,0,0,4.27-4.05,30.21,6.39,24.81,9.98,54.71,36.64,54.71,36.64-.32.66-41.97,16.67-41.97,16.67l-45.17-24.69-5.75-20.95Z"/><path class="cls-9" d="m139.45,50.15c.97-.89,7.97-14.06,7.97-14.06,0,0,4.27-4.05,30.21,6.39,24.81,9.98,54.71,36.64,54.71,36.64-.32.66-41.97,16.67-41.97,16.67l-45.17-24.69-5.75-20.95Z"/><path class="cls-14" d="m137.83,54.29c-4.74,9.15-11.3,25.02-11.3,25.02l16.81,12.71c17.06-28.13,16.2-40.7,9.82-44.74,0,0-7.08-6.19-15.33,7.01Z"/><path class="cls-9" d="m137.83,54.29c-4.74,9.15-11.3,25.02-11.3,25.02l16.81,12.71c17.06-28.13,16.2-40.7,9.82-44.74,0,0-7.08-6.19-15.33,7.01Z"/><path class="cls-3" d="m132.71,83.77c.3-.48,14.44-31.12,16.83-36.05,1.84-3.8,8.25-6.89,15.61-1.9,4.74,3.21,54.29,37.82,54.29,37.82"/><path class="cls-12" d="m152.4,75.04l4.98-13.41s-.37,6.43-1.02,11.46c-.24,1.86-.33,3.96-.33,3.96l-3.63-2Z"/></g><g><g><polygon class="cls-13" points="193.38 207.48 189.51 210.77 182.18 207.76 173.24 193.64 186.01 187.43 193.38 207.48"/><g><path class="cls-14" d="m180.45,206l3.67-.16c.83-.04,1.62.35,2.14,1,2.25,2.8,3.79,1.63,5.97-1.19,1.46-.24,1.93,1.43,2.06,1.87l3.19,9.86c.28.82-.17,1.71-.99,1.99-.15.05-.3.08-.45.08-4.46.2-6.57.29-12.12.54l-16.97.75c-4.63.2-5.79-4.42-3.91-4.93,8.49-2.27,14.44-5.06,16.98-7.68.47-.46-.05-.76.43-2.14Z"/><path class="cls-5" d="m178.03,208.95c1.27.12,2.48.82,3.21,1.87"/><path class="cls-5" d="m175.82,210.77c1.27.12,2.48.82,3.21,1.87"/><path class="cls-5" d="m173.05,212.34c1.27.12,2.48.82,3.21,1.87"/></g></g><path class="cls-16" d="m194.2,94.12c-2.37.55-45.92,21.93-55.95,34.22-7.08,8.67-1.88,14.7,3.38,23.65,5.29,8.99,38.01,53.63,38.01,53.63l12.6-5.23-24.97-59.33,64.02-23.83s7.21-5.01,8.04-15.33c.83-10.32-6.99-22.79-6.99-22.79l-38.14,15.01Z"/><path class="cls-7" d="m187.09,202.53s-36.13-67.13-36.03-68.13c.38-3.86,68.39-35.02,68.39-35.02,0,0,6.66-2.7,5.9-8.26-.75-5.56-1.32-7.47-1.32-7.47"/></g></g></g></svg>