<?xml version="1.0" encoding="utf-8"?>
<!-- Generator: Adobe Illustrator 27.2.0, SVG Export Plug-In . SVG Version: 6.00 Build 0)  -->
<svg version="1.1" xmlns="http://www.w3.org/2000/svg" xmlns:xlink="http://www.w3.org/1999/xlink" x="0px" y="0px"
	 viewBox="0 0 500 500" style="enable-background:new 0 0 500 500;" xml:space="preserve">
<style type="text/css">
	.st0{fill:#F5F5F5;}
	.st1{fill:#E0E0E0;}
	.st2{fill:#27DEBF;}
	.st3{opacity:0.15;}
	.st4{fill:#FFFFFF;}
	.st5{fill:#455A64;}
	.st6{fill:#37474F;}
	.st7{fill:#FAFAFA;}
	.st8{opacity:0.3;}
	.st9{opacity:0.1;}
	.st10{opacity:0.2;}
	.st11{opacity:0.5;fill:#27DEBF;}
	.st12{opacity:0.4;fill:#FFFFFF;}
	.st13{fill:#FFA8A7;}
	.st14{fill:#263238;}
	.st15{opacity:0.5;}
	.st16{fill:#F28F8F;}
</style>
<g id="Floor">
	<ellipse id="Floor_9_" class="st0" cx="251.12" cy="316.8" rx="238.53" ry="140.13"/>
</g>
<g id="Shadows">
	<path id="Shadow_14_" class="st1" d="M93.46,371.25c5.9,1.16,12.09,0.86,18.02,2.05c4.07,0.82,7.96,2.32,11.83,3.83
		c3.46,1.35,6.92,2.71,10.38,4.08c0.69,0.27,8.97,3.13,8.97,3.52c14.01,5.22,28.23,12.72,43.64,11.82c3.63-0.21,7.16-1.94,9.55-4.68
		c2.39-2.74,3.63-6.46,3.35-10.09c-0.23-2.94-1.39-5.83-0.96-8.75c1.15-7.82,8.33-7.01,14.1-5.68c3.37,0.78,6.69,1.73,9.98,2.79
		c8.66,2.79,17.78,5.39,24.67,11.65c4.43,4.03,8.7,5.63,14.69,6.3c4.18,0.47,8.29,0.73,12.29,2.12c3.95,1.37,7.38,4,11.03,6.02
		c9.89,5.47,22.9,4.74,32.11-1.83c1.55-1.1,3.14-2.72,2.83-4.59c-0.73-4.52-8.3-5.44-11.51-7.34c-5.8-3.44-11.62-6.84-17.48-10.17
		c-11.72-6.66-23.59-13.06-35.59-19.21c-12.83-6.57-25.83-12.86-39.38-17.77c-6.68-2.42-14.29-4.46-20.67-1.34
		c-5.15,2.51-7.18,7.28-10.52,11.52c-3.11,3.94-7.14,8.02-11.71,10.23c-3.64,1.76-7.78,2.17-11.82,2.36
		c-13.41,0.6-26.83-1.02-40.02-3.46c-5.59-1.04-11.23-2.22-16.9-1.88c-6.08,0.37-16.04,1.93-19.36,7.8
		c-0.52,0.93-1.02,1.91-1.13,2.97c-0.18,1.73,0.7,3.45,1.98,4.61c1.29,1.17,2.94,1.86,4.6,2.36
		C91.43,370.81,92.44,371.05,93.46,371.25z"/>
	<ellipse id="Shadow_9_" class="st1" cx="396.43" cy="309.25" rx="21.59" ry="12.47"/>
	<path id="Shadow_15_" class="st1" d="M379.71,388.55l-3.53-2.04c-2.39-1.38-2.39-3.62,0-5l7.86-4.54l-28.43-16.42l-7.86,4.54
		c-2.39,1.38-6.27,1.38-8.66,0l-3.53-2.04c-2.39-1.38-2.39-3.62,0-5l23.84-13.76c2.39-1.38,6.27-1.38,8.66,0l3.53,2.04
		c2.39,1.38,2.39,3.62,0,5l-8.68,5.01l28.43,16.42l8.67-5.01c2.39-1.38,6.27-1.38,8.66,0l3.53,2.04c2.39,1.38,2.39,3.62,0,5
		l-23.84,13.76C385.98,389.93,382.1,389.93,379.71,388.55z"/>
</g>
<g id="Plants">
	<g id="Plants_6_">
		<g id="XMLID_1491_">
			<path id="XMLID_1509_" class="st2" d="M440.07,249.23l-9.53-5.5c0,0-2.33-20.4-0.78-36.2c2.18-22.2,16.52-48.92,33.63-42.64
				c17.11,6.27-7.84,28.88-13.4,47.72C444.44,231.43,440.07,249.23,440.07,249.23z"/>
			<path id="XMLID_1508_" class="st3" d="M440.07,249.23l-9.53-5.5c0,0-2.33-20.4-0.78-36.2c2.18-22.2,16.52-48.92,33.63-42.64
				c17.11,6.27-7.84,28.88-13.4,47.72C444.44,231.43,440.07,249.23,440.07,249.23z"/>
			<path id="XMLID_1506_" class="st4" d="M435.06,246.91c0.01,0,0.01,0,0.02,0c0.32-0.01,0.57-0.28,0.56-0.6
				c-1.67-49.33,22.88-74.15,23.13-74.39c0.23-0.22,0.23-0.59,0.01-0.82c-0.23-0.23-0.59-0.23-0.82-0.01
				c-0.25,0.25-25.17,25.42-23.48,75.25C434.49,246.67,434.75,246.91,435.06,246.91z"/>
		</g>
		<g id="XMLID_1480_">
			<path id="XMLID_1489_" class="st2" d="M446.06,252.66l-6.78-3.91c0,0-1.15-14,5.71-31.01c5.98-14.81,20.8-27.09,28.26-24.51
				c7.46,2.58,7.27,7.87,3.64,13.42C473.25,212.19,451.13,225.41,446.06,252.66z"/>
			<path id="XMLID_1487_" class="st4" d="M442.48,251.17L442.48,251.17c0.32,0,0.58-0.26,0.58-0.58
				c-0.13-31.19,29.15-52.27,29.45-52.48c0.26-0.18,0.32-0.54,0.14-0.8c-0.18-0.26-0.54-0.32-0.8-0.14
				c-0.3,0.21-30.07,21.64-29.94,53.43C441.91,250.91,442.16,251.17,442.48,251.17z"/>
		</g>
	</g>
	<g id="Plants_7_">
		<g id="XMLID_1999_">
			<g id="XMLID_2004_">
				<path id="XMLID_2005_" class="st2" d="M76.21,240.41l8.03-4.64c0,0,4.78-19.86,2.88-37.74c-2.68-25.13-19.22-34.59-25.51-32.42
					c-6.29,2.17-8.11,9.48,2.3,24.45C70.04,198.89,77.59,217.29,76.21,240.41z"/>
			</g>
			<g id="XMLID_2002_" class="st3">
				<path id="XMLID_2003_" d="M76.21,240.41l8.03-4.64c0,0,4.78-19.86,2.88-37.74c-2.68-25.13-19.22-34.59-25.51-32.42
					c-6.29,2.17-8.11,9.48,2.3,24.45C70.04,198.89,77.59,217.29,76.21,240.41z"/>
			</g>
			<g id="XMLID_2000_">
				<path id="XMLID_2001_" class="st4" d="M79.54,230.65c-0.03,0-0.05,0-0.08-0.01c-0.3-0.06-0.5-0.35-0.44-0.65
					c4.4-23.18-3.69-49.23-13.72-60.06c-0.21-0.23-0.2-0.58,0.03-0.79c0.23-0.21,0.58-0.2,0.79,0.03
					c10.21,11.04,18.46,37.51,14,61.03C80.06,230.48,79.81,230.67,79.54,230.65z"/>
			</g>
		</g>
		<g id="XMLID_1991_">
			<g id="XMLID_1996_">
				<path id="XMLID_1998_" class="st2" d="M55.17,252.56c-1.27,0.65-4.64-2.24-5.58-2.95c-1.61-1.2-2.88-2.85-3.69-4.69
					c-0.94-2.14-1.09-4.38-0.65-6.67c0.23-1.19,0.62-2.34,1.02-3.48c0.39-1.12,0.77-2.25,1.16-3.37c0.38-1.11,0.77-2.25,0.68-3.42
					c-0.18-2.35-2.17-4.1-3.99-5.6c-2.01-1.67-4.08-3.84-3.92-6.65c0.12-2.17,1.35-4.13,2.78-5.77c1.43-1.64,3.11-3.06,4.41-4.8
					c0.94-1.25,1.7-2.74,1.64-4.3c-0.04-0.97-0.39-1.9-0.81-2.78c-0.9-1.88-2.13-3.63-2.71-5.63c-0.59-2-0.37-4.45,1.24-5.78
					c1.32-1.09,3.2-1.16,4.9-0.96c1.57,0.18,3.08,0.97,4.42,1.81c4.34,2.71,6.63,8.13,11.27,10.28c1.79,0.83,3.79,1.09,5.67,1.69
					c1.88,0.6,3.78,1.67,4.57,3.48c1.57,3.56-1.88,7.69-0.84,11.44c0.92,3.32,4.03,4.73,5.66,7.76c0.71,1.33,0.82,2.82,0.62,4.32
					c-0.34,2.53-0.81,4.37-2.17,7.13c-1.12,2.28-4.29,6.6-4.29,6.6S55.36,252.46,55.17,252.56z"/>
			</g>
			<g id="XMLID_1994_">
				<path id="XMLID_1995_" class="st4" d="M67.46,246.16c-0.01,0-0.02,0-0.02,0c-0.31-0.03-0.54-0.3-0.51-0.61
					c2.03-22.05-7.15-46.96-14.36-54.43c-0.21-0.22-0.21-0.57,0.01-0.79c0.22-0.21,0.57-0.21,0.79,0.01
					c7.36,7.62,16.73,32.95,14.67,55.31C68.02,245.95,67.76,246.17,67.46,246.16z"/>
			</g>
			<g id="XMLID_1992_">
				<path id="XMLID_1993_" class="st4" d="M65.27,218.97c-0.05,0-0.11-0.01-0.16-0.03c-6.99-2.55-15.81-3.39-15.9-3.39
					c-0.31-0.03-0.53-0.3-0.5-0.61c0.03-0.31,0.27-0.54,0.61-0.5c0.09,0.01,9.06,0.85,16.18,3.46c0.29,0.1,0.44,0.43,0.33,0.71
					C65.74,218.84,65.51,218.98,65.27,218.97z"/>
			</g>
		</g>
	</g>
</g>
<g id="Dumbbell_2_">
	<g id="Dumbbell_1_">
		<g id="XMLID_480_">
			<path id="XMLID_485_" class="st5" d="M365.22,331.33L365.22,331.33c-1.87-6.13-9.53-11.2-16.69-9.19l0,0
				c-1.03,0.28-2.11,0.73-3.22,1.38c-6.94,4-12.57,13.75-12.57,21.77c0,1.5,0.2,2.83,0.56,3.98l0,0c1.87,6.13,9.53,11.17,16.69,9.16
				l0,0c1.03-0.28,2.1-0.73,3.22-1.38c6.94-4.01,12.57-13.76,12.57-21.77C365.77,333.79,365.58,332.47,365.22,331.33z"/>
			<path id="XMLID_483_" class="st6" d="M353.2,357.05c6.94-4.01,12.57-13.76,12.57-21.77c0-8.02-5.63-11.27-12.57-7.26
				c-6.94,4-12.57,13.75-12.57,21.77C340.63,357.8,346.26,361.06,353.2,357.05z"/>
			<path id="XMLID_482_" class="st5" d="M353.2,336.9c2.67-1.54,4.83-0.29,4.83,2.79c0,3.08-2.16,6.83-4.83,8.37
				s-4.83,0.29-4.83-2.79C348.37,342.19,350.53,338.45,353.2,336.9z"/>
			<path class="st6" d="M354.85,341.53c0,1.05-0.74,2.34-1.65,2.87c-0.43,0.25-0.82,0.29-1.11,0.15c-0.04-0.02-0.08-0.04-0.12-0.07
				c-0.27-0.19-0.43-0.55-0.43-1.04c0-1.05,0.74-2.34,1.66-2.87c0.43-0.25,0.81-0.29,1.11-0.15l0.12,0.07
				C354.7,340.68,354.85,341.03,354.85,341.53z"/>
		</g>
		<path class="st7" d="M381.41,356.86c0,1.05-0.74,2.34-1.65,2.87c-0.27,0.16-0.5,0.22-0.72,0.22c-0.2,0-0.37-0.06-0.55-0.16
			l-26.4-15.24c-0.04-0.02-0.08-0.04-0.12-0.07c-0.27-0.19-0.43-0.55-0.43-1.04c0-1.05,0.74-2.34,1.66-2.87
			c0.43-0.25,0.81-0.29,1.11-0.15l0.12,0.07l26.4,15.24C381.2,355.95,381.41,356.27,381.41,356.86z"/>
		<g id="XMLID_475_">
			<path id="XMLID_479_" class="st5" d="M407.32,355.63L407.32,355.63c-1.87-6.13-9.53-11.2-16.69-9.19l0,0
				c-1.03,0.28-2.11,0.73-3.22,1.38c-6.94,4-12.57,13.75-12.57,21.77c0,1.5,0.2,2.83,0.56,3.98l0,0c1.87,6.13,9.53,11.17,16.69,9.16
				l0,0c1.03-0.28,2.1-0.73,3.22-1.38c6.94-4.01,12.57-13.76,12.57-21.77C407.88,358.09,407.68,356.77,407.32,355.63z"/>
			<path id="XMLID_478_" class="st6" d="M395.31,381.35c6.94-4.01,12.57-13.76,12.57-21.77c0-8.02-5.63-11.27-12.57-7.26
				c-6.94,4-12.57,13.75-12.57,21.77C382.74,382.11,388.36,385.36,395.31,381.35z"/>
			<path id="XMLID_476_" class="st5" d="M395.31,361.21c2.67-1.54,4.83-0.29,4.83,2.79c0,3.08-2.16,6.83-4.83,8.37
				c-2.67,1.54-4.83,0.29-4.83-2.79C390.47,366.5,392.64,362.75,395.31,361.21z"/>
			<path class="st6" d="M396.96,365.83c0,1.05-0.74,2.34-1.65,2.87c-0.43,0.25-0.82,0.29-1.11,0.15c-0.04-0.02-0.08-0.04-0.12-0.07
				c-0.27-0.19-0.43-0.55-0.43-1.04c0-1.05,0.74-2.34,1.66-2.87c0.43-0.25,0.81-0.29,1.11-0.15l0.12,0.07
				C396.8,364.98,396.96,365.34,396.96,365.83z"/>
		</g>
		<path class="st7" d="M400.96,368.15c0,1.05-0.74,2.34-1.65,2.87c-0.27,0.16-0.5,0.22-0.72,0.22c-0.2,0-0.37-0.06-0.55-0.16
			l-3.84-2.22c-0.04-0.02-0.08-0.04-0.12-0.07c-0.27-0.19-0.43-0.55-0.43-1.04c0-1.05,0.74-2.34,1.66-2.87
			c0.43-0.25,0.81-0.29,1.11-0.15l0.12,0.07l3.84,2.22C400.75,367.23,400.96,367.55,400.96,368.15z"/>
		<path class="st1" d="M400.96,368.13c0,1.05-0.74,2.34-1.65,2.87c-0.43,0.25-0.82,0.29-1.11,0.15c-0.04-0.02-0.08-0.04-0.12-0.07
			c-0.27-0.19-0.43-0.55-0.43-1.04c0-1.05,0.74-2.34,1.66-2.87c0.43-0.25,0.81-0.29,1.11-0.15l0.12,0.07
			C400.8,367.28,400.96,367.64,400.96,368.13z"/>
	</g>
</g>
<g id="Bottle">
	<g id="Water_1_">
		<g id="XMLID_498_">
			<path class="st2" d="M411.62,282.61c-0.49-2.17-1.6-4.49-2.53-6.52c-0.11-0.24-0.22-0.47-0.34-0.71
				c-2.02-3.99-2.01-8.7,0.18-12.6c0.08-0.13,0.15-0.27,0.22-0.4c1.36-2.47,1.95-4.6,1.95-7.42c0.01-2.15-1.4-5.36-4.23-7.01
				c-0.61-0.36-1.27-0.68-1.96-0.95c-1.28-0.52-2.13-1.73-2.13-3.11l0.01-3.84L390.51,240l-0.02,3.84
				c-0.01,1.38-0.87,2.59-2.15,3.09c-0.69,0.27-1.35,0.58-1.97,0.94c-2.85,1.63-4.28,4.83-4.29,6.98c-0.02,2.82,0.55,4.95,1.89,7.43
				c0.07,0.13,0.14,0.25,0.21,0.38c2.17,3.92,2.15,8.64,0.1,12.63c-0.12,0.24-0.24,0.47-0.35,0.71c-0.94,2.02-2.08,4.33-2.58,6.5
				c-0.48,2.1-0.59,4.36-0.6,6.61l-0.07,17.88c-0.01,2.32,1.51,4.65,4.57,6.42c2.5,1.45,5.64,2.32,8.88,2.59
				c1.47,0.13,2.97,0.13,4.44,0.02c3.24-0.26,6.35-1.1,8.85-2.53c3.07-1.75,4.61-4.06,4.62-6.38l0.05-12.93
				c0.01-1.61,0.07-3.3,0.08-4.98C412.17,286.96,412.09,284.71,411.62,282.61z"/>
			<path class="st8" d="M411.62,282.61c-0.49-2.17-1.6-4.49-2.53-6.52c-0.11-0.24-0.22-0.47-0.34-0.71
				c-2.02-3.99-2.01-8.7,0.18-12.6c0.08-0.13,0.15-0.27,0.22-0.4c1.36-2.47,1.95-4.6,1.95-7.42c0.01-2.15-1.4-5.36-4.23-7.01
				c-0.61-0.36-1.27-0.68-1.96-0.95c-1.28-0.52-2.13-1.73-2.13-3.11l0.01-3.84L390.51,240l-0.02,3.84
				c-0.01,1.38-0.87,2.59-2.15,3.09c-0.69,0.27-1.35,0.58-1.97,0.94c-2.85,1.63-4.28,4.83-4.29,6.98c-0.02,2.82,0.55,4.95,1.89,7.43
				c0.07,0.13,0.14,0.25,0.21,0.38c2.17,3.92,2.15,8.64,0.1,12.63c-0.12,0.24-0.24,0.47-0.35,0.71c-0.94,2.02-2.08,4.33-2.58,6.5
				c-0.48,2.1-0.59,4.36-0.6,6.61l-0.07,17.88c-0.01,2.32,1.51,4.65,4.57,6.42c2.5,1.45,5.64,2.32,8.88,2.59
				c1.47,0.13,2.97,0.13,4.44,0.02c3.24-0.26,6.35-1.1,8.85-2.53c3.07-1.75,4.61-4.06,4.62-6.38l0.05-12.93
				c0.01-1.61,0.07-3.3,0.08-4.98C412.17,286.96,412.09,284.71,411.62,282.61z"/>
			<path class="st9" d="M408.93,262.78c0.08-0.13,0.15-0.27,0.22-0.4c1.17-2.13,1.77-4,1.91-6.28c-0.28,0.89-0.68,1.75-1.17,2.54
				c-1.41,2.28-3.46,4.08-5.54,5.78c-2.11,1.72-4.45,3.67-4.71,6.38c-0.25,2.62,1.59,5,3.69,6.58c2.1,1.58,4.56,2.7,6.45,4.53
				c0.82,0.8,1.51,1.72,2.14,2.67c-0.08-0.67-0.18-1.33-0.32-1.98c-0.49-2.17-1.6-4.49-2.53-6.52c-0.11-0.24-0.22-0.47-0.34-0.71
				C406.74,271.39,406.75,266.67,408.93,262.78z"/>
			<g>
				<path id="XMLID_521_" class="st2" d="M388.43,244.28l-0.01,2.07c-0.01,1.23,0.8,2.47,2.43,3.43c3.25,1.89,8.53,1.91,11.81,0.05
					c0.81-0.47,1.43-1.01,1.84-1.59c0.41-0.57,0.61-1.19,0.61-1.8l0.01-2.1c0-0.19-0.01-0.37-0.06-0.56
					c-0.2-1.05-0.99-2.06-2.36-2.86c-0.04-0.02-0.08-0.05-0.12-0.07c-3.27-1.83-8.46-1.82-11.69,0.02c-1.38,0.79-2.19,1.8-2.39,2.84
					C388.45,243.89,388.43,244.09,388.43,244.28z"/>
				<path id="XMLID_520_" class="st9" d="M388.43,244.28l-0.01,2.07c-0.01,1.23,0.8,2.47,2.43,3.43c3.25,1.89,8.53,1.91,11.81,0.05
					c0.81-0.47,1.43-1.01,1.84-1.59c0.41-0.57,0.61-1.19,0.61-1.8l0.01-2.1c0-0.19-0.01-0.37-0.06-0.56
					c-0.2-1.05-0.99-2.06-2.36-2.86c-0.04-0.02-0.08-0.05-0.12-0.07c-3.27-1.83-8.46-1.82-11.69,0.02c-1.38,0.79-2.19,1.8-2.39,2.84
					C388.45,243.89,388.43,244.09,388.43,244.28z"/>
				<path id="XMLID_519_" class="st10" d="M402.67,247.73c3.27-1.87,3.28-4.92,0.03-6.82c-3.25-1.89-8.54-1.92-11.8-0.05
					c-3.27,1.87-3.28,4.92-0.03,6.82C394.11,249.58,399.4,249.6,402.67,247.73z"/>
				<path id="XMLID_504_" class="st2" d="M388.44,241.87l0,1.24c0,0.19,0.01,0.39,0.06,0.58c0.2,1.04,1,2.05,2.37,2.85
					c1.46,0.85,3.32,1.32,5.21,1.41c2.36,0.12,4.78-0.33,6.59-1.37c0.81-0.47,1.42-1,1.84-1.58c0.29-0.4,0.47-0.82,0.55-1.24
					c0.05-0.19,0.07-0.38,0.07-0.57l0.01-1.28c0-1.24-0.8-2.47-2.43-3.42c-0.15-0.08-0.29-0.16-0.44-0.24
					c-3.28-1.66-8.24-1.6-11.36,0.19C389.26,239.4,388.44,240.63,388.44,241.87z"/>
				<path id="XMLID_502_" class="st9" d="M388.44,241.87l0,1.24c0,0.19,0.01,0.39,0.06,0.58c0.2,1.04,1,2.05,2.37,2.85
					c1.46,0.85,3.32,1.32,5.21,1.41c2.36,0.12,4.78-0.33,6.59-1.37c0.81-0.47,1.42-1,1.84-1.58c0.29-0.4,0.47-0.82,0.55-1.24
					c0.05-0.19,0.07-0.38,0.07-0.57l0.01-1.28c0-1.24-0.8-2.47-2.43-3.42c-0.15-0.08-0.29-0.16-0.44-0.24
					c-3.28-1.66-8.24-1.6-11.36,0.19C389.26,239.4,388.44,240.63,388.44,241.87z"/>
				<path class="st2" d="M388.44,241.83c-0.01,2.65,3.72,4.81,8.33,4.83c4.61,0.02,8.36-2.12,8.37-4.77
					c0.01-2.65-3.72-4.81-8.33-4.83C392.19,237.05,388.45,239.18,388.44,241.83z"/>
			</g>
		</g>
		<path id="XMLID_489_" class="st2" d="M393.91,236.91l-0.02,4.32c0,0.07,0.01,0.13,0.02,0.2c0.07,0.36,0.35,0.71,0.82,0.99
			c0.5,0.29,1.15,0.46,1.81,0.49c0.82,0.04,1.66-0.11,2.29-0.47c0.28-0.16,0.49-0.35,0.64-0.55c0.1-0.14,0.16-0.28,0.19-0.43
			c0.02-0.06,0.02-0.13,0.02-0.2l0.02-4.34c0-0.43-0.28-0.86-0.84-1.19c-0.05-0.03-0.1-0.06-0.15-0.08
			c-1.14-0.57-2.86-0.55-3.94,0.07C394.2,236.05,393.91,236.48,393.91,236.91z"/>
		<path id="XMLID_487_" class="st9" d="M393.91,236.91l-0.02,4.32c0,0.07,0.01,0.13,0.02,0.2c0.07,0.36,0.35,0.71,0.82,0.99
			c0.5,0.29,1.15,0.46,1.81,0.49c0.82,0.04,1.66-0.11,2.29-0.47c0.28-0.16,0.49-0.35,0.64-0.55c0.1-0.14,0.16-0.28,0.19-0.43
			c0.02-0.06,0.02-0.13,0.02-0.2l0.02-4.34c0-0.43-0.28-0.86-0.84-1.19c-0.05-0.03-0.1-0.06-0.15-0.08
			c-1.14-0.57-2.86-0.55-3.94,0.07C394.2,236.05,393.91,236.48,393.91,236.91z"/>
		<path class="st2" d="M393.91,236.89c0,0.92,1.29,1.67,2.89,1.67c1.6,0.01,2.9-0.73,2.9-1.65c0-0.92-1.29-1.67-2.89-1.67
			C395.21,235.24,393.92,235.97,393.91,236.89z"/>
		<path class="st11" d="M395.78,236.9c0,0.33,0.46,0.59,1.02,0.59c0.57,0,1.03-0.26,1.03-0.59c0-0.33-0.46-0.59-1.02-0.59
			S395.78,236.57,395.78,236.9z"/>
		<path class="st8" d="M395.78,236.9c0,0.33,0.46,0.59,1.02,0.59c0.57,0,1.03-0.26,1.03-0.59c0-0.33-0.46-0.59-1.02-0.59
			S395.78,236.57,395.78,236.9z"/>
	</g>
</g>
<g id="Speech_Bubble">
	<g id="Speach_Bubble_8_">
		<g>
			<path id="XMLID_1504_" class="st2" d="M339.78,68.6l-72.54,41.89c-0.62,0.36-1.12,1.22-1.12,1.94v30.17
				c0,0.71,0.5,1.58,1.13,1.93l4.01,2.25c0.62,0.35,1.63,0.35,2.24-0.01l72.54-41.89c0.62-0.36,1.12-1.22,1.12-1.94V72.76
				c0-0.71-0.5-1.58-1.13-1.93l-4.01-2.25C341.41,68.24,340.4,68.24,339.78,68.6z"/>
			<path id="XMLID_1502_" class="st2" d="M272.38,146.11v-30.17c0-0.71,0.5-1.58,1.12-1.94l72.54-41.89
				c0.62-0.36,1.12-0.07,1.12,0.65v30.17c0,0.71-0.5,1.58-1.12,1.94l-72.54,41.89C272.88,147.12,272.38,146.83,272.38,146.11z"/>
			<path id="XMLID_1501_" class="st10" d="M273.5,146.76c-0.6,0.35-1.68,0.36-2.25,0.01l-4.01-2.25c-0.62-0.35-1.13-1.21-1.13-1.92
				v-30.17c0-0.37,0.14-0.78,0.36-1.14l6.23,3.56c-0.21,0.35-0.33,0.74-0.33,1.1v30.16C272.38,146.76,272.84,147.14,273.5,146.76z"
				/>
			<path id="XMLID_1495_" class="st12" d="M347.15,72.56c-0.09-0.56-0.55-0.77-1.11-0.44l-72.54,41.89
				c-0.31,0.18-0.59,0.49-0.79,0.84l-6.24-3.56c0.2-0.34,0.47-0.63,0.77-0.8l72.54-41.89c0.62-0.36,1.62-0.36,2.24-0.01l4.01,2.25
				C346.6,71.15,347.07,71.89,347.15,72.56z"/>
		</g>
		<g>
			<path id="XMLID_1494_" class="st2" d="M263.06,135.95c-0.7-0.42-5.96-3.38-6.14-3.48c-0.52-0.32-0.7-1.08-0.22-1.6l9.52-7.88
				l6.16,3.5l-9.52,7.88C262.4,134.88,262.59,135.61,263.06,135.95z"/>
			<path id="XMLID_1493_" class="st9" d="M263.06,135.95c-0.7-0.42-5.96-3.38-6.14-3.48c-0.52-0.32-0.7-1.08-0.22-1.6l9.52-7.88
				l6.16,3.5l-9.52,7.88C262.4,134.88,262.59,135.61,263.06,135.95z"/>
			<path id="XMLID_1492_" class="st2" d="M272.38,126.5l-9.52,7.88c-0.65,0.69-0.17,1.64,0.64,1.72l8.88-1.04L272.38,126.5z"/>
		</g>
		<g>
			<path class="st7" d="M278.08,123.7c-0.06-0.1-0.08-0.24-0.06-0.42c0.02-0.18,0.06-0.34,0.14-0.5l2.79-5.42
				c0.07-0.13,0.15-0.29,0.25-0.47c0.1-0.18,0.21-0.31,0.34-0.38l1.58-0.91c0.1-0.06,0.18-0.04,0.25,0.04
				c0.07,0.08,0.1,0.21,0.1,0.38v14.91c0,0.17-0.03,0.34-0.1,0.5c-0.07,0.16-0.15,0.27-0.25,0.33l-1.7,0.98
				c-0.09,0.05-0.18,0.04-0.25-0.04c-0.07-0.08-0.1-0.21-0.1-0.38v-10.09l-1.55,2.97c-0.08,0.15-0.17,0.25-0.26,0.28
				c-0.09,0.03-0.17,0-0.23-0.11L278.08,123.7z"/>
			<path class="st7" d="M288.05,128.28c0,0.17-0.03,0.34-0.1,0.5c-0.07,0.16-0.15,0.27-0.25,0.33l-1.7,0.98
				c-0.09,0.05-0.18,0.04-0.25-0.04c-0.07-0.08-0.1-0.21-0.1-0.38v-3.02c0-0.17,0.03-0.34,0.1-0.5c0.07-0.16,0.15-0.27,0.25-0.33
				l1.7-0.98c0.09-0.05,0.18-0.04,0.25,0.04c0.07,0.08,0.1,0.21,0.1,0.38V128.28z"/>
			<path class="st7" d="M292.43,125.75c0,0.17-0.03,0.34-0.1,0.5c-0.07,0.16-0.15,0.27-0.25,0.33l-1.7,0.98
				c-0.09,0.05-0.18,0.04-0.25-0.04c-0.07-0.08-0.1-0.21-0.1-0.38v-3.02c0-0.17,0.03-0.34,0.1-0.5c0.07-0.16,0.15-0.27,0.25-0.33
				l1.7-0.98c0.09-0.05,0.18-0.04,0.25,0.04c0.07,0.08,0.1,0.21,0.1,0.38V125.75z"/>
			<path class="st7" d="M296.8,123.23c0,0.17-0.04,0.34-0.1,0.5c-0.07,0.16-0.15,0.27-0.25,0.33l-1.7,0.98
				c-0.09,0.05-0.18,0.04-0.25-0.04c-0.07-0.08-0.1-0.21-0.1-0.38v-3.02c0-0.17,0.04-0.34,0.1-0.5c0.07-0.16,0.15-0.27,0.25-0.33
				l1.7-0.98c0.09-0.05,0.18-0.04,0.25,0.04c0.07,0.08,0.1,0.21,0.1,0.38V123.23z"/>
			<path class="st7" d="M305.98,107.59c0,0.45-0.03,0.89-0.08,1.34c-0.05,0.44-0.14,0.9-0.27,1.36c-0.13,0.47-0.29,0.95-0.49,1.45
				c-0.2,0.5-0.45,1.03-0.75,1.59l-1.82,3.5l3.26-1.88c0.09-0.05,0.18-0.04,0.25,0.04c0.07,0.08,0.1,0.21,0.1,0.38v2.45
				c0,0.17-0.04,0.34-0.1,0.5c-0.07,0.16-0.15,0.27-0.25,0.33l-6.86,3.96c-0.1,0.06-0.18,0.04-0.25-0.04
				c-0.07-0.08-0.1-0.21-0.1-0.38v-1.99c0-0.25,0.03-0.51,0.09-0.79c0.06-0.28,0.15-0.54,0.29-0.79l3.88-7.18
				c0.3-0.58,0.49-1.05,0.57-1.43c0.08-0.38,0.12-0.72,0.12-1.03c0-0.11-0.01-0.25-0.03-0.43c-0.02-0.18-0.07-0.34-0.15-0.49
				c-0.08-0.15-0.19-0.25-0.33-0.31c-0.14-0.06-0.34-0.01-0.58,0.13c-0.24,0.14-0.44,0.33-0.59,0.56c-0.15,0.23-0.27,0.47-0.35,0.7
				c-0.08,0.23-0.14,0.46-0.18,0.67c-0.04,0.21-0.07,0.37-0.08,0.48c-0.04,0.24-0.11,0.42-0.2,0.54c-0.09,0.12-0.2,0.22-0.32,0.29
				l-1.6,0.92c-0.08,0.05-0.15,0.03-0.2-0.03c-0.06-0.07-0.08-0.17-0.08-0.31c0.01-0.65,0.09-1.34,0.23-2.06
				c0.15-0.72,0.37-1.43,0.67-2.13c0.3-0.7,0.67-1.33,1.12-1.91c0.45-0.58,0.97-1.05,1.58-1.39c0.57-0.33,1.08-0.47,1.51-0.42
				c0.44,0.05,0.8,0.24,1.1,0.57c0.29,0.33,0.52,0.78,0.67,1.34C305.9,106.24,305.98,106.88,305.98,107.59z"/>
			<path class="st7" d="M310.47,115.33c0,0.17-0.03,0.34-0.1,0.5c-0.07,0.16-0.15,0.27-0.25,0.33l-1.7,0.98
				c-0.09,0.05-0.18,0.04-0.25-0.04c-0.07-0.08-0.1-0.21-0.1-0.38v-3.02c0-0.17,0.03-0.34,0.1-0.5c0.07-0.16,0.15-0.27,0.25-0.33
				l1.7-0.98c0.09-0.05,0.18-0.04,0.25,0.04c0.07,0.08,0.1,0.21,0.1,0.38V115.33z"/>
			<path class="st7" d="M314.85,112.81c0,0.17-0.03,0.34-0.1,0.5c-0.07,0.16-0.15,0.27-0.25,0.33l-1.7,0.98
				c-0.09,0.05-0.18,0.04-0.25-0.04c-0.07-0.08-0.1-0.21-0.1-0.38v-3.02c0-0.17,0.03-0.34,0.1-0.5c0.07-0.16,0.15-0.27,0.25-0.33
				l1.7-0.98c0.09-0.05,0.18-0.04,0.25,0.04c0.07,0.08,0.1,0.21,0.1,0.38V112.81z"/>
			<path class="st7" d="M319.22,110.28c0,0.17-0.04,0.34-0.1,0.5c-0.07,0.16-0.15,0.27-0.25,0.33l-1.7,0.98
				c-0.09,0.05-0.18,0.04-0.25-0.04c-0.07-0.08-0.1-0.21-0.1-0.38v-3.02c0-0.17,0.04-0.34,0.1-0.5c0.07-0.16,0.15-0.27,0.25-0.33
				l1.7-0.98c0.09-0.05,0.18-0.04,0.25,0.04c0.07,0.08,0.1,0.21,0.1,0.38V110.28z"/>
			<path class="st7" d="M327.94,89.72c0.09-0.05,0.18-0.04,0.25,0.04c0.07,0.08,0.1,0.21,0.1,0.38v2.45c0,0.17-0.03,0.34-0.09,0.51
				c-0.06,0.17-0.12,0.32-0.17,0.44l-1.57,3.72c0.67-0.08,1.22,0.12,1.65,0.61c0.42,0.49,0.64,1.33,0.64,2.53
				c0,1.74-0.34,3.24-1.01,4.51s-1.62,2.25-2.83,2.95c-0.62,0.36-1.17,0.55-1.66,0.56c-0.48,0.02-0.88-0.1-1.21-0.34
				s-0.58-0.58-0.76-1.03c-0.18-0.44-0.27-0.95-0.28-1.51c0-0.14,0.03-0.27,0.08-0.41c0.06-0.13,0.12-0.22,0.2-0.27l1.64-0.94
				c0.18-0.11,0.32-0.11,0.42-0.02c0.09,0.09,0.2,0.19,0.32,0.29c0.12,0.1,0.27,0.17,0.45,0.21c0.19,0.04,0.45-0.04,0.8-0.24
				c0.42-0.24,0.76-0.56,1.03-0.97c0.27-0.4,0.41-0.87,0.41-1.41c0-0.54-0.14-0.85-0.41-0.94c-0.27-0.09-0.62-0.01-1.03,0.23
				l-1.08,0.62c-0.1,0.06-0.18,0.04-0.25-0.04c-0.07-0.08-0.1-0.21-0.1-0.38v-1.98c0-0.17,0.03-0.34,0.09-0.51
				c0.06-0.17,0.12-0.33,0.18-0.47l1.38-3.26l-3.39,1.96c-0.09,0.05-0.18,0.04-0.25-0.04c-0.07-0.08-0.1-0.21-0.1-0.38v-2.45
				c0-0.17,0.03-0.34,0.1-0.5c0.07-0.16,0.15-0.27,0.25-0.33L327.94,89.72z"/>
			<path class="st7" d="M333.02,102.31c0,0.17-0.04,0.34-0.1,0.5c-0.07,0.16-0.15,0.27-0.25,0.33l-1.7,0.98
				c-0.09,0.05-0.18,0.04-0.25-0.04c-0.07-0.08-0.1-0.21-0.1-0.38v-3.02c0-0.17,0.04-0.34,0.1-0.5c0.07-0.16,0.15-0.27,0.25-0.33
				l1.7-0.98c0.09-0.05,0.18-0.04,0.25,0.04c0.07,0.08,0.1,0.21,0.1,0.38V102.31z"/>
			<path class="st7" d="M337.4,99.79c0,0.17-0.04,0.34-0.1,0.5c-0.07,0.16-0.15,0.27-0.25,0.33l-1.7,0.98
				c-0.09,0.05-0.18,0.04-0.25-0.04c-0.07-0.08-0.1-0.21-0.1-0.38v-3.02c0-0.17,0.04-0.34,0.1-0.5c0.07-0.16,0.15-0.27,0.25-0.33
				l1.7-0.98c0.09-0.05,0.18-0.04,0.25,0.04c0.07,0.08,0.1,0.21,0.1,0.38V99.79z"/>
			<path class="st7" d="M341.77,97.26c0,0.17-0.03,0.34-0.1,0.5c-0.07,0.16-0.15,0.27-0.25,0.33l-1.7,0.98
				c-0.09,0.05-0.18,0.04-0.25-0.04c-0.07-0.08-0.1-0.21-0.1-0.38v-3.02c0-0.17,0.03-0.34,0.1-0.5c0.07-0.16,0.15-0.27,0.25-0.33
				l1.7-0.98c0.09-0.05,0.18-0.04,0.25,0.04c0.07,0.08,0.1,0.21,0.1,0.38V97.26z"/>
		</g>
	</g>
</g>
<g id="Character">
	<g id="Character_5_">
		<g class="st8">
			<g>
				<path d="M149.81,277.71c-0.05,0-0.1-0.01-0.14-0.03l-5.72-1.62c-0.42-0.12-0.66-0.56-0.54-0.97c0.12-0.42,0.57-0.66,0.97-0.54
					l5.72,1.62c0.42,0.12,0.66,0.56,0.54,0.97C150.54,277.51,150.18,277.74,149.81,277.71z"/>
			</g>
			<g>
				<path d="M143.94,282.15c-0.32-0.03-0.61-0.26-0.69-0.59c-0.11-0.42,0.15-0.85,0.57-0.96l5.77-1.46c0.42-0.1,0.85,0.15,0.96,0.57
					c0.11,0.42-0.15,0.85-0.57,0.96l-5.77,1.46C144.11,282.15,144.03,282.15,143.94,282.15z"/>
			</g>
			<g>
				<path d="M146.84,287.47c-0.18-0.02-0.36-0.1-0.49-0.24c-0.3-0.31-0.3-0.81,0.02-1.12l4.27-4.15c0.31-0.3,0.81-0.3,1.12,0.02
					c0.3,0.31,0.3,0.81-0.02,1.12l-4.27,4.15C147.29,287.41,147.06,287.49,146.84,287.47z"/>
			</g>
			<g>
				<path d="M152.01,290.62c-0.05,0-0.1-0.01-0.14-0.03c-0.42-0.12-0.66-0.56-0.54-0.97l1.62-5.72c0.12-0.42,0.56-0.66,0.97-0.54
					c0.42,0.12,0.66,0.56,0.54,0.97l-1.62,5.72C152.74,290.42,152.38,290.66,152.01,290.62z"/>
			</g>
		</g>
		<g>
			<path class="st13" d="M308.23,201.82c0.17-0.1-14.29,8.25-14.29,8.25l-31.39,4.54c0,0-22.94-34.42-26.45-39.83
				c-3.51-5.41-7.61-8.88-17.12-8.87l1.8,27.46c0.3,0.89,19.27,24.26,31.78,36.98c4.42,4.49,7.13,5.63,14.05,3.72
				c17.64-4.89,38.98-19.38,40.72-23.01C309.58,206.36,308.06,201.91,308.23,201.82z"/>
			<g id="Dumbbell">
				<g id="XMLID_446_">
					<path id="XMLID_473_" class="st5" d="M302.34,184.41L302.34,184.41c1.87-6.13,9.53-11.2,16.69-9.19l0,0
						c1.03,0.28,2.11,0.73,3.22,1.38c6.94,4,12.57,13.75,12.57,21.77c0,1.5-0.2,2.83-0.56,3.98l0,0
						c-1.87,6.13-9.53,11.17-16.69,9.16l0,0c-1.03-0.28-2.1-0.73-3.22-1.38c-6.94-4.01-12.57-13.76-12.57-21.77
						C301.79,186.88,301.98,185.55,302.34,184.41z"/>
					<path id="XMLID_472_" class="st6" d="M314.36,210.13c-6.94-4.01-12.57-13.76-12.57-21.77s5.63-11.27,12.57-7.26
						c6.94,4,12.57,13.75,12.57,21.77C326.93,210.89,321.3,214.14,314.36,210.13z"/>
					<path id="XMLID_447_" class="st5" d="M314.36,189.99c-2.67-1.54-4.83-0.29-4.83,2.79s2.16,6.83,4.83,8.37
						c2.67,1.54,4.83,0.29,4.83-2.79C319.2,195.28,317.03,191.53,314.36,189.99z"/>
					<path class="st6" d="M312.71,194.62c0,1.05,0.74,2.34,1.65,2.87c0.43,0.25,0.82,0.29,1.11,0.15c0.04-0.02,0.08-0.04,0.12-0.07
						c0.27-0.19,0.43-0.55,0.43-1.04c0-1.05-0.74-2.34-1.66-2.87c-0.43-0.25-0.81-0.29-1.11-0.15l-0.12,0.07
						C312.87,193.77,312.71,194.12,312.71,194.62z"/>
				</g>
				<path class="st7" d="M286.15,209.95c0,1.05,0.74,2.34,1.65,2.87c0.27,0.16,0.5,0.22,0.72,0.22c0.2,0,0.37-0.06,0.55-0.16
					l26.4-15.24c0.04-0.02,0.08-0.04,0.12-0.07c0.27-0.19,0.43-0.55,0.43-1.04c0-1.05-0.74-2.34-1.66-2.87
					c-0.43-0.25-0.81-0.29-1.11-0.15l-0.12,0.07l-26.4,15.24C286.36,209.04,286.15,209.36,286.15,209.95z"/>
				<g id="XMLID_427_">
					<path id="XMLID_445_" class="st5" d="M260.24,208.71L260.24,208.71c1.87-6.13,9.53-11.2,16.69-9.19l0,0
						c1.03,0.28,2.11,0.73,3.22,1.38c6.94,4,12.57,13.75,12.57,21.77c0,1.5-0.2,2.83-0.56,3.98l0,0
						c-1.87,6.13-9.53,11.17-16.69,9.16l0,0c-1.03-0.28-2.1-0.73-3.22-1.38c-6.94-4.01-12.57-13.76-12.57-21.77
						C259.69,211.18,259.88,209.86,260.24,208.71z"/>
					<path id="XMLID_444_" class="st6" d="M272.26,234.44c-6.94-4.01-12.57-13.76-12.57-21.77c0-8.02,5.63-11.27,12.57-7.26
						c6.94,4,12.57,13.75,12.57,21.77C284.83,235.19,279.2,238.45,272.26,234.44z"/>
					<path id="XMLID_430_" class="st5" d="M272.26,214.29c-2.67-1.54-4.83-0.29-4.83,2.79c0,3.08,2.16,6.83,4.83,8.37
						c2.67,1.54,4.83,0.29,4.83-2.79C277.09,219.58,274.93,215.84,272.26,214.29z"/>
					<path class="st6" d="M270.6,218.92c0,1.05,0.74,2.34,1.65,2.87c0.43,0.25,0.82,0.29,1.11,0.15c0.04-0.02,0.08-0.04,0.12-0.07
						c0.27-0.19,0.43-0.55,0.43-1.04c0-1.05-0.74-2.34-1.66-2.87c-0.43-0.25-0.81-0.29-1.11-0.15l-0.12,0.07
						C270.76,218.07,270.6,218.42,270.6,218.92z"/>
				</g>
				<path class="st7" d="M266.6,221.23c0,1.05,0.74,2.34,1.65,2.87c0.27,0.16,0.5,0.22,0.72,0.22c0.2,0,0.37-0.06,0.55-0.16
					l3.84-2.22c0.04-0.02,0.08-0.04,0.12-0.07c0.27-0.19,0.43-0.55,0.43-1.04c0-1.05-0.74-2.34-1.66-2.87
					c-0.43-0.25-0.81-0.29-1.11-0.15l-0.12,0.07l-3.84,2.22C266.81,220.32,266.6,220.64,266.6,221.23z"/>
				<path class="st1" d="M266.6,221.22c0,1.05,0.74,2.34,1.65,2.87c0.43,0.25,0.82,0.29,1.11,0.15c0.04-0.02,0.08-0.04,0.12-0.07
					c0.27-0.19,0.43-0.55,0.43-1.04c0-1.05-0.74-2.34-1.66-2.87c-0.43-0.25-0.81-0.29-1.11-0.15l-0.12,0.07
					C266.76,220.37,266.6,220.73,266.6,221.22z"/>
			</g>
			<path class="st13" d="M299.08,218.13c6.07-4.64,11.89-4.6,10.84-15.93c-0.89-5.04-2.13-5.36-7.02-7.25
				c-2.14-0.83-4.97-1.46-6.71,0.5c-0.21,0.23-0.39,0.49-0.63,0.68c-0.46,0.37-1.09,0.45-1.68,0.54c-1.12,0.17-2.32,0.44-3.06,1.29
				c-0.57,0.65-0.79,1.54-1.34,2.2c-0.48,0.56-1.17,0.9-1.73,1.39c-0.88,0.76-1.43,1.9-1.43,3.06c-0.01,1.48,0.84,2.43,1.84,3.39
				l3.06-1.76c1.25-0.86,3.83,2.21,2.72,3.83C292.18,212.65,299.08,218.13,299.08,218.13z"/>
		</g>
		<g id="XMLID_751_">
			<path class="st13" d="M228.37,240.89c1.94-7.85,2.5-27.44,2.5-27.44l-56.79,1.7c0,0,2.37,9.48,3.1,12.38
				c0.72,2.89,0.81,8.45,0.81,8.45s5.51,10.21,21.85,12.01C216.18,249.79,228.37,240.89,228.37,240.89z"/>
			<path id="XMLID_752_" class="st5" d="M230.87,213.45c0.06,0.62-0.33,6.55-0.33,6.55c-7.26,6.11-30.56,9.2-54.98,1.07l-5.18-19.99
				c0,0,17.58-7.72,5.71-33.62l12.76-0.99l22.67-0.57c5.5,0,7.45,0,7.45,0c3.46,3.26,10.1,10.52,15.33,20.28
				C237.27,191.73,241.06,199.84,230.87,213.45z"/>
			<path class="st6" d="M198.77,213.63c-10.23-2.61-12.8-9.01-13.52-13.7c0,0-1.93,13.7,12.69,16.89
				c15.42,3.37,21.76-8.84,21.76-8.84S211.12,216.78,198.77,213.63z"/>
		</g>
		<g>
			<g>
				<g>
					<path class="st14" d="M111.69,366.09c-2.98,2.19-9.91,2.72-16.03-0.14c-6.11-2.86-8.64-10.96-7.5-17.29
						c1.38-7.67,5.17-11.87,6.14-16.48c0.97-4.61-0.04-11.02,1.45-15.12c1.42-3.9,4.51-5.89,7-6.88c2.05-0.82,4.36-0.57,6.26,0.55
						l1.8,1.06L111.69,366.09z"/>
				</g>
				<g>
					<path class="st6" d="M118.85,336.84l-4.74,14.21c0,0,2.99,10.15,1.31,12.84c-2.49,3.99-6.88,4.7-14.27,2.45
						c-8.45-2.58-10.45-10.22-10.03-16.17c0.59-8.46,8.42-14.84,7.53-22.98c-0.44-3.98,0.11-8.47,2.3-11.9
						c2.45-3.85,6.48-4.57,10.65-3.31c3.57,1.08,6.72,3.33,9.74,5.44c0.85,0.59,1.7,1.19,2.34,2c0.56,0.71,0.93,1.55,1.2,2.41
						c0.55,1.74,0.71,3.6,0.47,5.41c-0.22,1.7-1.3,2.69-2.31,4.03C121.64,333.13,120.24,334.99,118.85,336.84z"/>
				</g>
				<path class="st13" d="M139.28,330.11c-0.29-0.11-14.77-9.37-16.34-10.07c-1.56-0.7-5.39-1.69-9.11,6.9
					c-2.65,6.12,1.16,8.38,1.16,8.38l16.94,10.1L139.28,330.11z"/>
				<path class="st2" d="M114.11,351.05c-2.03-1.05-6.32-2.49-9.88-2.21c-1.12,0.09-1.99-0.95-1.64-2.02l0.01-0.03
					c0.19-0.6,0.73-1.02,1.35-1.06c2.29-0.18,7.85-0.24,11.55,2.79C116.46,350.56,114.11,351.05,114.11,351.05z"/>
				<path class="st2" d="M115.84,344.56c-1.97-1.16-6.18-2.81-9.75-2.71c-1.13,0.03-1.94-1.05-1.54-2.1l0.01-0.03
					c0.23-0.59,0.78-0.98,1.41-0.99c2.3-0.06,7.86,0.16,11.39,3.39C118.22,344.18,115.84,344.56,115.84,344.56z"/>
				<path class="st8" d="M114.11,351.05c-2.03-1.05-6.32-2.49-9.88-2.21c-1.12,0.09-1.99-0.95-1.64-2.02l0.01-0.03
					c0.19-0.6,0.73-1.02,1.35-1.06c2.29-0.18,7.85-0.24,11.55,2.79C116.46,350.56,114.11,351.05,114.11,351.05z"/>
				<path class="st8" d="M115.84,344.56c-1.97-1.16-6.18-2.81-9.75-2.71c-1.13,0.03-1.94-1.05-1.54-2.1l0.01-0.03
					c0.23-0.59,0.78-0.98,1.41-0.99c2.3-0.06,7.86,0.16,11.39,3.39C118.22,344.18,115.84,344.56,115.84,344.56z"/>
			</g>
			<g>
				<path id="XMLID_426_" class="st13" d="M263.42,367.63l18.8-7.46c-0.32-4.84-1.51-11.31-0.27-24.04l-21.33-4.06v21.36
					L263.42,367.63z"/>
				<g>
					<path id="XMLID_425_" class="st14" d="M317.08,384.14c0.54,1.13,0.39,3.26-0.26,4.61c-0.64,1.35-7.69,5.32-17.2,4.68
						c-9.51-0.64-16.04-4.47-19.66-6.87c-3.63-2.4-7.4-2.85-12.11-3.12c-4.71-0.27-10.89-2.62-11.92-4.82c-1.03-2.2,0.16-6,0.16-6
						L317.08,384.14z"/>
					<path id="XMLID_424_" class="st6" d="M278.71,354.47c0.25-0.05,0.5-0.1,0.75-0.16c0.41-0.08,0.84-0.16,1.25-0.07
						c0.47,0.11,0.85,0.44,1.17,0.79c1.02,1.11,1.64,2.53,2.43,3.81c1.99,3.25,6.18,5.94,10.75,8.4c3.11,1.67,6.15,2.96,9.36,4.41
						c3.27,1.47,7.61,2.37,10.17,4.1c3.73,2.51,4.21,8.83-0.04,11.33c-3.67,2.15-13.32,4.49-23.44,1.62
						c-5.51-1.56-11.63-7.45-18.87-8.02c-4.6-0.36-13.3-1.65-16.27-5.15c-1.1-1.55,0.37-6.46,1.57-10.7
						c1.31-4.63,1.79-12.79,3.33-12.38c0,0-0.42,1.15,0.18,1.77c0.57,0.59,2.71,1.86,3.33,2.38c1.14,0.97,1.84,2.34,2.55,3.66
						c0.31,0.57,0.67,1.18,1.31,1.42c0.78,0.29,1.36-0.2,2.04-0.51c0.85-0.39,1.85-0.46,2.75-0.2c-0.09-0.92-0.25-1.83-0.48-2.72
						c-0.08-0.29-0.16-0.59-0.07-0.88c0.09-0.29,0.34-0.49,0.59-0.66C274.84,355.48,276.67,354.91,278.71,354.47z"/>
					<path id="XMLID_423_" class="st2" d="M290.77,364.75c0,0-0.66-1.77-3.4-2.27c-2.09-0.39-5.79,1.15-8.09,3.05
						c-0.94,0.78-0.82,2.25,0.25,2.84l0,0c0.64,0.35,1.41,0.26,1.96-0.22C282.99,366.83,286.37,364.44,290.77,364.75z"/>
					<path id="XMLID_422_" class="st2" d="M297.26,368.38c0,0-1.35-2.11-4.03-2.07c0,0-5.47,0.16-8.85,3.31
						c-0.86,0.8-0.8,2.17,0.23,2.74l0,0c0.61,0.34,1.36,0.25,1.89-0.22C288.02,370.78,291.08,367.92,297.26,368.38z"/>
					<path id="XMLID_415_" class="st2" d="M304.42,371.66c0,0-1.51-1.91-4.18-1.87c0,0-5.09,0.19-8.48,3.35
						c-0.86,0.8-0.8,2.17,0.23,2.74l0,0c0.61,0.34,1.37,0.25,1.89-0.22C295.4,374.29,298.24,371.2,304.42,371.66z"/>
					<path id="XMLID_406_" class="st8" d="M290.77,364.75c0,0-0.66-1.77-3.4-2.27c-2.09-0.39-5.79,1.15-8.09,3.05
						c-0.94,0.78-0.82,2.25,0.25,2.84l0,0c0.64,0.35,1.41,0.26,1.96-0.22C282.99,366.83,286.37,364.44,290.77,364.75z"/>
					<path id="XMLID_404_" class="st8" d="M297.26,368.38c0,0-1.35-2.11-4.03-2.07c0,0-5.47,0.16-8.85,3.31
						c-0.86,0.8-0.8,2.17,0.23,2.74l0,0c0.61,0.34,1.36,0.25,1.89-0.22C288.02,370.78,291.08,367.92,297.26,368.38z"/>
					<path id="XMLID_380_" class="st8" d="M304.42,371.66c0,0-1.51-1.91-4.18-1.87c0,0-5.09,0.19-8.48,3.35
						c-0.86,0.8-0.8,2.17,0.23,2.74l0,0c0.61,0.34,1.37,0.25,1.89-0.22C295.4,374.29,298.24,371.2,304.42,371.66z"/>
				</g>
			</g>
			<path class="st2" d="M276.27,260.36c-14.3-3.21-48.45-10.35-48.45-10.35l0.55-9.12c-12.36,6.4-38.39,4.59-50.38-4.91l-1.89,9.67
				c0,0-6.72,7.74-11.74,17.68c-2.74,5.43-7.33,13.89-2.77,33.62c2.68,11.59,6.25,42.1,6.25,42.1l-34.96-12.89
				c0,0-3.03,0.51-5.54,7.06c-1.49,3.89-2.05,7.61-0.47,9.55c12.8,10.1,33.54,26.62,54.5,35.88c13.99,5.36,21.44-6.41,22.13-10.77
				c2.62-16.7,5.66-70.36,5.66-70.36l46.71-1.49c-1.54,8.86,4.76,43.48,4.76,43.48s11.51,4.99,21.06-0.12c0,0,6.38-39.84,6.99-53.13
				C289.34,271.44,290.1,263.46,276.27,260.36z"/>
			<path class="st3" d="M255.86,296.03c0-2.39,1.59-10.75,7-15.19c0,0-7.42,1.33-10.81,15.31L255.86,296.03z"/>
			<path class="st3" d="M167.85,339.05c0,0,0.95,13.18,3.52,19.59c0,0-6.32-11.4-7.04-20.89L167.85,339.05z"/>
			<path class="st3" d="M227.81,250.01l0.55-9.11c-12.36,6.39-38.37,4.58-50.36-4.91c0,0-0.01,0-0.01,0l-1.89,9.67c0,0,0,0,0,0
				c0.09,0.1,7.79,8.05,27.81,9.09C224.05,255.79,227.81,250.01,227.81,250.01z"/>
			<path class="st3" d="M209.15,297.52c0,0,0.32-15.05-12.25-26.08c0,0,10.76,4.96,14.36,20.82c0,0,8.02-3.72,12.18-14.91
				c0,0-1.28,11.18-7.72,17.54l19.42,1.8L209.15,297.52z"/>
		</g>
		<g>
			<g>
				<path class="st14" d="M202.85,95.27L202.85,95.27c-17.26,0-31.25,13.99-31.25,31.25l0,0c0,17.26,13.99,31.25,31.25,31.25l0,0
					c17.26,0,31.25-13.99,31.25-31.25l0,0C234.11,109.26,220.11,95.27,202.85,95.27z"/>
				<path class="st14" d="M170.25,114.31c1.13-0.05,2.26,0.01,3.38,0.19c0.38,0.06,0.79,0.15,1.02,0.45
					c0.17,0.21,0.22,0.5,0.25,0.77c0.21,1.66,0.14,3.58-0.47,5.17c-0.44,1.16-1.82,1.75-2.69,2.59c-3.38,3.27-3.65,8.71-2.32,13.22
					c1.33,4.51,3.96,8.53,5.74,12.88c1.8,4.42,2.64,9.61,0.2,13.96c-0.95,1.69-2.68,2.96-2.47,5.03c0.24,2.45,2.38,4.8,3.3,7.03
					c1.07,2.58,1.32,5.45,1.03,8.23c-0.35,3.43-1.53,6.83-3.74,9.46c-3.25,3.87-8.7,5.74-13.64,4.68c-1.03-0.22-2.06-0.57-2.88-1.23
					c-1.48-1.18-2.06-3.11-2.86-4.82c-2.58-5.52-8.01-9.55-9.66-15.42c-1.74-6.21,1.24-12.75,4.9-18.06
					c1.71-2.48,3.62-4.92,4.46-7.81c1.13-3.91,0.14-8.08-0.11-12.14c-0.25-3.97,0.21-7.98,1.34-11.78c0.83-2.76,2.1-5.94,4.25-7.92
					C162.26,116.08,166.23,114.49,170.25,114.31z"/>
			</g>
			<g>
				<g id="XMLID_747_">
					<path id="XMLID_748_" class="st13" d="M222.44,109.57c3.42,2.04,7.63,10.7,7.14,28.8c-0.42,15.34-5.41,19.11-7.91,20.19
						c-2.5,1.08-7.31,0.4-11.99-0.4l-0.04,9.21c0,0,6.44,7.54,6.02,11.76c-0.42,4.22-9.37,5.18-15.4,1.03
						c-6.04-4.15-11.11-12.21-11.11-12.21l0.19-21.17c0,0-2.77,2.67-7.42-1.44c-3.84-3.39-5.12-9.08-2.1-12.12
						c3.02-3.04,8.57-2.19,10.68,2.17c0,0,7.47,0.3,17.43-5.12C217.9,124.86,221.76,115.52,222.44,109.57z"/>
				</g>
				<g id="XMLID_745_">
					<path id="XMLID_746_" class="st14" d="M212.47,134.45c0.05,1.11-0.77,2.04-1.83,2.09c-1.06,0.05-1.97-0.81-2.02-1.92
						c-0.05-1.11,0.77-2.04,1.84-2.09C211.51,132.48,212.41,133.34,212.47,134.45z"/>
				</g>
				<g id="XMLID_743_" class="st15">
					<path id="XMLID_744_" class="st16" d="M212.93,147.45l4.48,1.45c-0.38,1.28-1.69,2-2.92,1.6
						C213.25,150.1,212.55,148.73,212.93,147.45z"/>
				</g>
				<g id="XMLID_728_">
					<path id="XMLID_729_" class="st14" d="M228.31,128.59l-3.89-2.72c0.72-1.11,2.17-1.4,3.24-0.65
						C228.74,125.96,229.03,127.47,228.31,128.59z"/>
				</g>
				<g id="XMLID_726_">
					<path id="XMLID_727_" class="st14" d="M227.39,133.11c0.05,1.11-0.77,2.04-1.84,2.09c-1.06,0.05-1.97-0.81-2.02-1.92
						c-0.05-1.11,0.77-2.04,1.83-2.09C226.44,131.15,227.34,132.01,227.39,133.11z"/>
				</g>
				<g id="XMLID_724_" class="st15">
					<polygon id="XMLID_725_" class="st16" points="218.29,131.97 218.55,143.59 224.67,141.72 					"/>
				</g>
				<g id="XMLID_722_" class="st15">
					<path id="XMLID_723_" class="st16" d="M209.68,158.16c-4.93-0.67-15.07-3.63-16.64-7.65c0,0,0.52,2.52,3.54,5.14
						c3.02,2.61,13.09,5.58,13.09,5.58L209.68,158.16z"/>
				</g>
			</g>
		</g>
		<g>
			<path class="st13" d="M176.1,167.47c-9.68,0.68-13.67,1.92-19.06,13.88c-4.85,10.76-16.45,38.57-19.35,44.77
				c-2.9,6.21-3.45,8.69-1.02,15.18c1.98,5.29,18.34,35.68,20.12,40.11c1.79,4.43,2.58,8.91,5.63,14.07
				c3.05,5.16,7.87,10.2,11.68,11.39c5.65,1.77,12.96-0.69,13.22-4.1c0.26-3.4-8.29-9.11-10.6-16.67c0,0,2.54,1.69,4.84,2.63
				c2.3,0.94,4.85,0.74,5.62-0.57c0.77-1.3-1.53-2.1-3.57-4.12c-1.22-1.21-3.38-3.92-6.14-6.33c-1.86-1.62-4.93-2.1-6.31-3.88
				c-0.75-0.95-4.11-9.18-6.63-16.52c-3.12-9.08-7.23-21.18-7.23-21.18l16.82-35.05C174.09,201.09,187.31,187.97,176.1,167.47z"/>
			<g>
				<path class="st6" d="M156.78,281.41c0,0,3.88-7.83,14.36-7.58l-2.77-6.16c0,0-10.23,0.72-14.55,7.65L156.78,281.41z"/>
				<path class="st14" d="M155.65,274.76l2.28,3.19c0.7,0.98,2.04,1.19,3,0.46l4.02-3.03c0.96-0.72,1.19-2.11,0.52-3.11l-2.09-3.08
					c-0.67-0.99-2.01-1.23-2.99-0.53l-4.24,3.05C155.18,272.42,154.95,273.78,155.65,274.76z"/>
				<path class="st5" d="M154.9,274.68l2.28,3.19c0.7,0.98,2.04,1.19,3,0.46l4.02-3.03c0.96-0.72,1.19-2.11,0.52-3.11l-2.09-3.08
					c-0.67-0.99-2.01-1.23-2.99-0.53l-4.24,3.05C154.42,272.34,154.2,273.7,154.9,274.68z"/>
				<path class="st2" d="M164.28,273.63c-0.04,0.41-0.25,0.79-0.57,1.03l-4.02,3.03c-0.29,0.22-0.63,0.3-0.98,0.25
					c-0.35-0.05-0.65-0.24-0.86-0.53l-2.28-3.19c-0.19-0.27-0.28-0.6-0.24-0.93c0.04-0.39,0.24-0.74,0.56-0.97l4.24-3.05
					c0.29-0.21,0.64-0.29,0.98-0.23c0.35,0.06,0.65,0.26,0.85,0.55l2.09,3.08C164.23,272.94,164.31,273.28,164.28,273.63
					L164.28,273.63z"/>
			</g>
		</g>
	</g>
</g>
</svg>
