<?xml version="1.0" encoding="UTF-8"?><svg id="Layer_2" xmlns="http://www.w3.org/2000/svg" viewBox="0 0 410.5 181.94"><defs><style>.cls-1{stroke:#ce9e80;stroke-width:.63px;}.cls-1,.cls-2,.cls-3,.cls-4,.cls-5,.cls-6,.cls-7,.cls-8,.cls-9{fill:none;}.cls-1,.cls-2,.cls-3,.cls-4,.cls-6,.cls-7{stroke-miterlimit:10;}.cls-10{fill:#1d1c21;}.cls-2{stroke:#c14153;}.cls-2,.cls-7{stroke-width:.75px;}.cls-3{stroke:#4d8779;stroke-width:.65px;}.cls-11{fill:#e7e4e1;}.cls-12{fill:#f2d289;}.cls-4{stroke:#d4b165;stroke-width:.73px;}.cls-13{fill:#394044;}.cls-14{fill:#1f2326;}.cls-15{fill:#d85965;}.cls-16{fill:#dc6d75;}.cls-17{fill:#d9ac91;}.cls-18{fill:#cf9580;}.cls-5{stroke-width:.57px;}.cls-5,.cls-8,.cls-9{stroke:#cf9580;stroke-linecap:round;stroke-linejoin:round;}.cls-6{stroke:#1d1c21;stroke-width:.87px;}.cls-19{fill:#0b1123;}.cls-7{stroke:#213a70;}.cls-20{fill:#0c1439;}.cls-21{fill:#5da394;}.cls-8{stroke-width:.56px;}.cls-22{fill:#274491;}.cls-9{stroke-width:.54px;}.cls-23{fill:#231917;}.cls-24{fill:#e6bda0;}</style></defs><g id="Layer_2-2"><g id="Layer_3"><g><g><g><path class="cls-24" d="m231.06,83.8s28.24.59,32.66.59c3.58,0,5.71-2.91,3.64-5.82h0c-.66-.93-1.65-1.56-2.77-1.78l-28.48-2.76-5.04,9.77h-.01Z"/><polygon class="cls-24" points="263.31 76.64 293.37 73.48 294.75 77.01 265.6 83.97 263.31 76.64"/><path class="cls-24" d="m236.1,74.03s4.07-1.72,8.79.91c4.72,2.64-4.05,4.41-4.05,4.41l-4.74-5.32h0Z"/><path class="cls-24" d="m290.82,77.03s.53-3.63,5.85-5.14c3.65-1.04,13.9-3.05,14.58-1.56.58,1.26-6.44,1.84-10.77,4.38l4.18-.07c.72.12,1.24.53,1.01,1.23h0c-.17.54-.71.88-1.27.82l-5.51.63s-5.41,1.47-8.07-.28h0Z"/></g><path class="cls-16" d="m235.23,70.13s-5.12-5.72-12.61-2.28-6.99,9.14-13.56,10.9c-6.57,1.76-9.92.45-9.92.45l-1.15,17.67s10.91-.8,19.88-4.8c0,0,11.42,1.93,15.29-2.62,1.97-2.31,3.26-5.86,3.67-8.99.64-4.86.5-6.65-1.2-9.61l-.42-.73h.02,0Z"/><g><path class="cls-24" d="m185.48,20.21s-1.51-13.27-7.31-7.46-1.15,9.93,4.83,12.74c0,0,2.48-5.28,2.48-5.28Z"/><path class="cls-24" d="m201.85,50.75c0,.41,9.39,13.64,14.9,22.34,2.25,3.55,7.3,3.92,10.04.73h0c2.03-2.35,2.03-5.84,0-8.19l-19.58-20.12-5.37,5.24h.01Z"/><path class="cls-24" d="m207.49,48.34s.03-7.17-6.12-12.07c-6.15-4.9-15.89-16.05-15.89-16.05l-2.48,5.28s14.59,22.49,18.86,25.86,5.62-3.02,5.62-3.02h0Z"/></g></g><g><g><path class="cls-24" d="m181.12,135.73l8.78.83c3.5-14.59,3.51-32.55,3.51-32.55l-14.87-5.17c-2.75,5.55,2.58,36.88,2.58,36.88h0Z"/><path class="cls-24" d="m180.11,155.03c1.03,2.06,1.67,4.29,1.99,6.57l2.05,10.94,5.31.66.76-39.52-9.1,2.05c-3.37,8.55-2.53,16.27-1.01,19.3h0Z"/><path class="cls-19" d="m194.98,93.96s-1.01,10.39-1.63,13.34c0,0-8.61,2.26-15.77-1.63,0,0-2.38-16.3-.27-20.03s17.67,8.32,17.67,8.32h0Z"/><path class="cls-24" d="m183.95,172.49s-1.99,3.61-2.09,6.48c-.03.84.64,1.54,1.48,1.6l20.11,1.37c.88.06,1.62-.64,1.6-1.52h0c0-.59-.36-1.12-.9-1.35l-15.45-6.66-4.74.09h-.01Z"/></g><g><path class="cls-24" d="m161.92,51.02l-9.64,2.92c6.51,13.51,17.44,25.49,17.44,25.49l9.83-8.7c-1.38-6.04-17.62-19.71-17.62-19.71h-.01Z"/><path class="cls-24" d="m171.36,37.47c.2-2.29.83-4.53,1.76-6.63l3.58-8.16-3.09-5.46-22.05,33.11,9.95,1.57c7.36-5.51,9.56-11.06,9.85-14.43Z"/><path class="cls-24" d="m151.55,50.33s-.37,1.41.73,3.6c1.1,2.19,8.95-2.92,8.95-2.92l-9.68-.68h0Z"/><path class="cls-24" d="m174.68,22.54s4,.97,6.8.32c.82-.19,1.32-1.02,1.16-1.84l-3.94-19.76c-.17-.86-1.04-1.39-1.89-1.15h0c-.56.16-.98.64-1.06,1.23l-2.38,16.66,1.32,4.55h-.01Z"/><path class="cls-24" d="m175.52,9.85l.17.11c1.24.8,1.88,2.27,1.61,3.72l-.37,1.98c-.27,1.45-1.74,2.35-3.16,1.93h0c-.71-.21-1.18-.9-1.11-1.64l.45-4.93c.11-1.17,1.41-1.8,2.4-1.17h.01Z"/><path class="cls-1" d="m180.75,11.56s2.66,9.85,1.69,10.57-3.33.94-3.33.94"/><path class="cls-1" d="m173.49,17.47s3.84.9,3.82-3.79c-.03-4.69-2.75-4.06-2.75-4.06"/><path class="cls-20" d="m198,96.88s-16.28-.22-28.29-17.45c0,0,1.68-8.99,6.56-14.25l4.96,7.09s13.31-2.52,17.91,6.94c0,0,2.49,15.57-1.15,17.67h0Z"/></g></g><g><g><polygon class="cls-24" points="238.6 57.78 230.27 67.7 233.19 76.42 244.31 63.22 238.6 57.78"/><path class="cls-24" d="m230.27,67.7s-2.74,15.82,2.69,15.83c4.02,0,2.69-15.83,2.69-15.83h-5.38Z"/></g><g><path class="cls-14" d="m231.23,48.28s3.78-5.73-1.09-7.62c-4.62-1.79-7.32,4.83-7.48,5.69-.16.86-1.87,5.56,2.02,8s6.54-6.07,6.54-6.07h0Z"/><path class="cls-16" d="m235,46.93s-1.96-2.12-4.06-.16-.93,5.01.71,5.28c1.65.27,3.97-3.87,3.97-3.87l-.63-1.25h0Z"/></g><path class="cls-14" d="m230.92,51.46c-1.54,6.21,2.25,12.49,8.46,14.03s12.49-2.25,14.03-8.46-1.39-12.28-7.6-13.81c-6.21-1.54-13.34,2.04-14.88,8.25h0Z"/><path class="cls-14" d="m250.48,46.77s6.25,1.18,5.64,6.14c-.5,4.05-6.71,3.55-6.71,3.55l1.07-9.69h0Z"/><path class="cls-24" d="m249.44,48.65c5.42,1.34,4.48,5.61,4.48,5.61l-1.51,10.12c-.85,3.07-2.16,5.59-4.96,6.4-1.77.51-3.67.14-5.25-.81l-4.59-2.76,3.21-17.19s3.2-2.71,8.62-1.37h0Z"/><path class="cls-24" d="m252.64,59.56l1.74,3.55c.2.5,0,1.03-.48,1.29l-2.2.5.94-5.35h0Z"/><g><path class="cls-14" d="m251.84,60.06c-.12.36-.52.55-.87.42-.36-.12-.55-.52-.42-.87.12-.36.52-.55.87-.42.36.12.55.52.42.87Z"/><path class="cls-14" d="m249.48,56.86s.08.03.12.04l2.58.54c.34.08.67-.14.75-.48s-.14-.67-.48-.75l-2.58-.54c-.34-.08-.67.14-.75.48-.07.3.09.59.36.71h0Z"/><path class="cls-9" d="m251.64,66.17s-1.32.06-2.39-1.22"/></g><path class="cls-18" d="m239.89,68.58s-1.17-1.9-1.25-4.61c0,0-1.28,2.86-.14,6.15l1.39-1.54Z"/><path class="cls-14" d="m252.8,50.47s-2.15,6.28-11.77,5.78l-3.86-1.74s3.9-8.91,5.69-8.53c1.79.38,9.7,1.83,9.95,4.49h0Z"/><polygon class="cls-14" points="246.08 54.22 242.9 59.59 242.53 54.47 246.08 54.22"/><path class="cls-14" d="m240.53,60.21s-2.87,2.95-6.13,2.63l.47-6.07,5.66,3.44Z"/><path class="cls-24" d="m243.54,58.39c-.16,1.71-1.68,2.95-3.39,2.79s-2.95-1.68-2.79-3.39,1.68-2.95,3.39-2.79,2.95,1.68,2.79,3.39Z"/></g></g><g><g><g><g><path class="cls-24" d="m57.9,40.79s-12.76-4.95-14.12,5.93l-8.76,19.52,6.35,4.62,14.94-23.51,1.59-6.56h0Z"/><path class="cls-24" d="m33.82,63.3l-19.88,11.36,2.43,5,23.11-7.44c2.87-1.3,4.11-4.7,2.75-7.54h0c-1.48-3.09-5.57-3.29-8.41-1.38h0Z"/><path class="cls-24" d="m10.23,80.49c-2.81-1.38-3.98-4.78-2.6-7.6,1.38-2.81,4.78-3.98,7.6-2.6,2.81,1.38,3.98,4.78,2.6,7.6-1.38,2.81-4.78,3.98-7.6,2.6Z"/></g><path class="cls-12" d="m46.64,35.23s-6.07-1.14-8.91,10.31l-2.27,6.95,11.9,7.5-.71-24.76s0,0-.01,0Z"/><rect class="cls-10" x="1.71" y="73.63" width="14.85" height="3.54" rx="1.35" ry="1.35"/><path class="cls-24" d="m9.32,70.86l-2.65,2.38c-.59.53-.33,1.51.45,1.67h0c.21.04.43.02.62-.08l3.93-1.92-2.35-2.06h0Z"/><path class="cls-24" d="m7.34,77.16v-.3c0-.64.5-1.16,1.14-1.18l6.94-.22c.74-.02,1.32.63,1.2,1.36l-.28,1.74s-9-1.4-9-1.4Z"/></g><g><polygon class="cls-12" points="45.22 35.3 55.82 32.96 72.58 33.35 75.9 48.35 73.14 78.84 43.04 79.15 45.22 35.3"/><line class="cls-4" x1="43.73" y1="57.71" x2="43.78" y2="47.7"/></g><g><path class="cls-24" d="m72.69,52.02s8.2-16.19,9.56-5.31l8.76,19.52-6.35,4.62-11.97-18.84h0Z"/><path class="cls-24" d="m92.21,63.3l19.88,11.36-2.43,5-23.11-7.44c-2.87-1.3-4.11-4.7-2.75-7.54h0c1.48-3.09,5.57-3.29,8.41-1.38h0Z"/><path class="cls-12" d="m72.58,33.35s7.37-1.36,10.21,10.09l2.27,6.95-13.64,7.5,1.16-24.54h0Z"/><path class="cls-24" d="m115.8,80.49c2.81-1.38,3.98-4.78,2.6-7.6-1.38-2.81-4.78-3.98-7.6-2.6-2.81,1.38-3.98,4.78-2.6,7.6,1.38,2.81,4.78,3.98,7.6,2.6Z"/><rect class="cls-10" x="107.62" y="73.63" width="14.85" height="3.54" rx="1.35" ry="1.35"/><path class="cls-24" d="m116,70.86l2.65,2.38c.59.53.33,1.51-.45,1.67h0c-.21.04-.43.02-.62-.08l-3.93-1.92,2.35-2.06h0Z"/><path class="cls-24" d="m117.97,77.16v-.3c0-.64-.5-1.16-1.14-1.18l-6.94-.22c-.74-.02-1.32.63-1.2,1.36l.28,1.74s9-1.4,9-1.4Z"/><polyline class="cls-4" points="75.12 55.85 73.59 56.69 69.64 47.35"/></g><path class="cls-6" d="m2.31,75.16s-9.97,4.67,16.1,37.97c26.08,33.3,61.75,61.05,82.37,42.42,20.61-18.63,24.9-78.48,20.82-80.56"/></g><g><g><path class="cls-17" d="m60.69,141.38c.99-5.6-2.02-14.15-3.72-18.37,3.73-20.51,4.13-33.3,4.13-33.3l-17.7,8.48-.31,27.57c0,.68.08,1.37.25,2.03l10.08,38.51,7.73-.77s-1.83-16.48-.47-24.14h.01Z"/><path class="cls-11" d="m60.39,163.73l-2.24-17.2s-2.45,2.35-9.42,1.85l4.17,16.16,7.48-.82h.01Z"/><g><path class="cls-13" d="m52.34,164.19l-6.53,4.75-4.5,1.44c-2.07.66-3.46,2.61-3.41,4.78l.02,1.02,25.62-2.88-1.91-10.13-9.3,1.02h0Z"/><polyline points="63.66 173.45 37.84 176.35 37.59 174.14 63.41 171.24 63.66 173.45"/></g><path class="cls-21" d="m43.91,79.15c-2.5,3.69-2.1,21.4-2.1,21.4l13.62.36,2.43-21.92-13.94.16s0,0-.01,0Z"/></g><g><path class="cls-24" d="m73.12,94.7l-18.45,6.69-1.95,25c-.05.67-.04,1.34.04,2l5.14,41.77h7.77s-.19-16.58,1.92-24.07c1.54-5.47-.61-14.28-1.88-18.65,5.74-20.04,7.41-32.73,7.41-32.73h0Z"/><path class="cls-21" d="m72.34,78.84s5.2,12.33,1.98,22.87l-19.65-.33-1.16-22.34,18.84-.2h-.01Z"/><polyline class="cls-3" points="54.67 101.38 54.58 91 50.62 87.89"/><path class="cls-11" d="m65.64,170.71l.93-19.17s-4.22,2.1-10.87.77l2.35,19.62,7.59-1.21h0Z"/><g><path class="cls-13" d="m57.58,169.4l-6.41,4.92-4.47,1.56c-2.05.72-3.39,2.7-3.28,4.87l.05,1.02,25.54-3.54-2.17-10.08-9.27,1.26h0Z"/><polyline points="69.14 178.37 43.4 181.94 43.09 179.73 68.83 176.16 69.14 178.37"/></g></g></g><g><path class="cls-23" d="m56.26,1.24c-6.7-.06-8.94,5.44-8.94,5.44l7.94,5.66,5.63-4.69"/><g><path class="cls-24" d="m62.46,32.84l-2.52-15.77-11.31,1.81,2.52,15.77c.5,3.12,3.44,5.25,6.56,4.75h0c3.12-.5,5.25-3.44,4.75-6.56Z"/><path class="cls-18" d="m60.49,17.85s.91,13.7-9.58,15.11l-1.07-6.77,10.65-8.35h0Z"/><path class="cls-24" d="m65.81,33.19s-.42,8.47-8.99,8.19c-8.45-.28-6.99-7.1-6.99-7.1l5.99-1.32,9.99.23h0Z"/></g><path class="cls-23" d="m42.15,9.71s-4.45,1.73-.37,8.18l2.27-4.95-1.9-3.24h0Z"/><path class="cls-18" d="m46.89,19.23c.27,1.74-.92,3.38-2.67,3.65-1.74.27-3.38-.92-3.65-2.67-.27-1.74.92-3.38,2.67-3.65,1.74-.27,3.38.92,3.65,2.67Z"/><path class="cls-24" d="m53.31,29.82h0c-4.85.75-9.27-1.55-10.03-6.4l-1.5-9.67c-.33-2.11,1.13-4.11,3.24-4.44l9.96-1.55c2.11-.33,4.11,1.13,4.44,3.24l1.29,8.31c.75,4.85-3.31,9.87-7.4,10.51Z"/><path class="cls-23" d="m58.75,16.24h0s-5.8-2.07-3.77-8.49l2.07-1.25s3.56-1.75,6.66,1.01c2.78,2.48-1.52,8.19-1.52,8.19l-3.44.54h0Z"/><path class="cls-24" d="m64.26,16.53c.27,1.74-.92,3.38-2.67,3.65-1.74.27-3.38-.92-3.65-2.67-.27-1.74.92-3.38,2.67-3.65s3.38.92,3.65,2.67Z"/><g><path class="cls-23" d="m50.9,18.14c.09.38.47.62.85.53.38-.09.62-.47.53-.85s-.47-.62-.85-.53c-.38.09-.62.47-.53.85Z"/><path class="cls-23" d="m44.3,19.11c.09.38.47.62.85.53.38-.09.62-.47.53-.85s-.47-.62-.85-.53c-.38.09-.62.47-.53.85Z"/><path class="cls-8" d="m47.18,19.66l.08,1.76s.28,1.04,1.72.4"/><path class="cls-23" d="m53.24,15.44s-.08.02-.13.03l-3.18.36c-.35.04-.67-.22-.72-.57-.04-.35.21-.67.57-.72l3.18-.36c.36-.04.67.22.72.57.03.31-.16.59-.44.69Z"/><path class="cls-23" d="m45.65,16.54s-.08.02-.13.03l-1.94.22c-.36.04-.68-.22-.72-.57-.04-.36.22-.68.57-.72l1.94-.22c.36-.04.68.22.72.57.04.31-.16.59-.44.69Z"/><line class="cls-8" x1="49.47" y1="24.44" x2="50.78" y2="24.07"/></g><path class="cls-23" d="m56.18,8.34s-16.1,10.04-19.67,3.28c-3.58-6.77,3.56-11.96,8.49-10.12,3.76,1.4,11.18,6.85,11.18,6.85h0Z"/><path class="cls-23" d="m45.66,1.77s2.33.93,4.48-.68c3.21-2.4,9.17-.66,10.96,3.5,1.79,4.16-6.02,3.75-6.02,3.75l-9.42-2.3s0-4.27,0-4.27Z"/></g></g><g><g><g><path class="cls-24" d="m351.59,98.12l-3.88,29.01s3.75,10.87.33,24.71c-3.42,13.83-4.13,23.06-4.13,23.06l-7.69-.5v-48.32l.33-17.37,15.05-10.58h0Z"/><path class="cls-11" d="m336.21,174.39v-16.72s4.71,1.91,10.47,0l-2.78,17.22-7.69-.5Z"/><g><path class="cls-13" d="m336.19,172.54l-8.28,3.58-4.15.84c-1.91.38-3.33,1.98-3.5,3.92l-.08.91,24.97-.04-.65-9.21h-8.31Z"/><path d="m345.24,181.9l-25.16.04v-1.47c0-.29.23-.53.52-.53l24.63-.03v1.99"/></g></g><g><path class="cls-24" d="m362.64,126s-.64,14.86,2.41,22.73c3.05,7.87,7.92,27.5,7.92,27.5l6.83-.06s-3.08-39.65-5.73-50.16l-3.88-23.78-13.84,6.83,6.29,16.95h0Z"/><path class="cls-11" d="m379.79,174.1l-1.61-16.42s-4.71,1.91-10.47,0l4.39,16.92,7.69-.5h0Z"/><g><path class="cls-13" d="m380.01,172.54l8.28,3.58,4.15.84c1.91.38,3.33,1.98,3.5,3.92l.08.91-24.97-.04.65-9.21h8.31Z"/><path d="m370.96,181.9l25.16.04v-1.47c0-.29-.23-.53-.52-.53l-24.63-.03v1.99"/></g></g><g><path class="cls-22" d="m371.05,98.97c.48-7.75-3.22-13.58-3.22-13.58l-31.47-.68-1.78,29.41,16.87.64,1.14-17.2,3.02,17.2,19.03-.64-3.6-15.16h.01Z"/><polyline class="cls-7" points="352.6 97.57 352.6 97.57 346.97 92.31"/></g></g><g><g><path class="cls-15" d="m349.99,37.72s-12.5-2.5-15.69,1.66c-5.18,6.75,2.06,45.34,2.06,45.34l31.47.68s5.6-23.44,5.02-35.4c-.16-3.2-2.17-6.01-5.11-7.28-3.53-1.52-8.77-3.63-12.7-4.6l-5.05-.4Z"/><path class="cls-17" d="m365.29,72.89s12.97.57,11.26-19.14l-7.49-2.33-3.77,21.47h0Z"/><path class="cls-15" d="m363.6,41.01s14.85,2.26,14.57,21.15l-9.03-3.34-5.54-17.81h0Z"/></g><g><g><path class="cls-24" d="m359.09,38.1l-.07-16.85-12.08.05.06,16.85c.02,3.34,2.73,6.03,6.07,6.01h0c3.34-.02,6.03-2.73,6.01-6.07h0Z"/><path class="cls-18" d="m359.46,22.14s-1.27,14.44-12.44,14.21l-.02-7.23,12.46-6.98h0Z"/></g><g><path class="cls-14" d="m352.27,9.62c4.56.45,3.35,7.69,3.35,7.69l6,1.32c-.39,7.3-3.49,10.54-8.84,10.8-6.39.32-12.62-5.98-14.05-13.08-.74-3.68,1.21-6.63,1.21-6.63.15,0,7.82-.55,12.34-.11h-.01Z"/><path class="cls-18" d="m336.62,20.19c-.41,2.38,1.66,4.39,4.03,3.9,1.31-.27,2.37-1.37,2.6-2.69.41-2.38-1.66-4.39-4.03-3.9-1.31.27-2.37,1.37-2.6,2.69Z"/><path class="cls-24" d="m349.38,33.88h-.37c-5.51.09-10.05-4.3-10.14-9.81l-.15-9.24c-.04-2.55,2-4.64,4.54-4.68l13.14-.21c1.43-.02,2.6,1.12,2.62,2.54l.18,11.27c.09,5.51-4.31,10.05-9.82,10.14h0Z"/><g><path class="cls-14" d="m348.34,20.82c.05.48.47.84.95.79s.84-.47.79-.95-.47-.84-.95-.79-.84.47-.79.95Z"/><path class="cls-14" d="m340.84,20.91c.04.48.47.84.96.79.48-.05.84-.47.79-.95-.04-.48-.47-.84-.95-.79s-.84.47-.79.95h0Z"/><path class="cls-18" d="m345.3,25.93c-.34,0-.64-.09-.89-.26-.53-.34-.62-.89-.62-.95l.15-3.7c0-.19.15-.33.36-.33.19,0,.34.17.33.36l-.16,3.64h0s.07.25.32.41c.28.18.72.18,1.29.02.19-.05.38.05.43.24s-.05.38-.24.43c-.36.11-.69.15-.99.15h.02Z"/><path class="cls-14" d="m351.65,18.15s-.11.02-.16.02l-3.97.13c-.44,0-.81-.33-.83-.78-.01-.44.33-.81.78-.83l3.97-.13c.44,0,.81.33.83.78.01.39-.25.72-.62.81Z"/><path class="cls-14" d="m342.64,18.52s-.11.02-.16.02l-2.43.09c-.44.02-.82-.33-.83-.77-.02-.44.33-.82.77-.83l2.43-.09c.44-.02.82.33.83.77.01.39-.25.72-.61.81Z"/><line class="cls-5" x1="345.81" y1="27.77" x2="348.02" y2="27.57"/></g><path class="cls-14" d="m349.73,4.49c-4.12.2-7.91,1.99-9.8,5.23l-.47,1.63s2.17,1.78,10.14-.5c.98-.28,1.85-.46,2.62-.56,1.17-.15,2.35.43,2.84,1.51,1.2,2.61.67,6.63.67,6.63l5.88.2c.2-1.1.3-2.24.24-3.41-.36-7.23-5.73-11.04-12.12-10.72h0Z"/><path class="cls-24" d="m357.81,19.44c-.89,2.58,1.06,5.19,3.79,5.07,1.51-.07,2.89-1.1,3.38-2.53.89-2.58-1.06-5.19-3.79-5.07-1.51.07-2.89,1.09-3.38,2.53Z"/></g></g><g><g><g><path class="cls-17" d="m353.28,46.38l18.96,6.26-.72,7.69s-15.43,2.41-34.37-6.99l16.12-6.96s.01,0,.01,0Z"/><path class="cls-17" d="m372.25,52.64l27.54,6.98-.76,4.04s-26.39,1.54-30.07-4.34l3.29-6.69h0Z"/><path class="cls-17" d="m398.48,62.94s-1.04,2.4,4.37,4.12c0,0,3.9.71,4.69,4.46.15.7.75,1.2,1.46,1.2h0c.89,0,1.58-.77,1.49-1.66-.21-2.04-1.47-4.87-4.12-7.3-3.58-3.3-6.59-4.13-6.59-4.13l-1.31,3.32h.01Z"/><polygon class="cls-15" points="356.4 46 345.24 37.63 336.14 40.65 335.28 53.49 337.16 55.3 356.4 46"/></g><path class="cls-2" d="m333.31,49.27s2.15,4.99,3.72,5.72l2.19-.69"/><path class="cls-2" d="m346.08,39.01s8.27,4.9,10.32,6.98l-1.69.82"/></g><g><path class="cls-24" d="m365.73,36.41s-1.44,9.24-3.47,15.96c-1.86,6.16-2.01,15.18.87,19.77.46.73,1.36,1.05,2.16.75,2.82-1.05,9.12-4.58,7.54-14.8-2.03-13.05-1.45-21.2-1.45-21.2l-5.65-.48Z"/><g><path class="cls-24" d="m365.73,36.41l-2.55-6.93c-.64-1.74-.04-3.69,1.46-4.77,1.44-1.03,3.43-1.97,5.74-1.7,1.53.18,2.72,1.4,2.91,2.92.3,2.47.33,6.71-1.92,10.96l-5.65-.48h.01Z"/><path class="cls-24" d="m372.24,25.29h.84c.61,0,1.17.32,1.47.85l.37.65c.76,1.32.88,2.92.3,4.33-.58,1.4-1.7,3.32-3.84,5.78l-1.2-9.01,2.05-2.59h.01Z"/></g></g></g></g></g></g></g></svg>