<?xml version="1.0" encoding="UTF-8"?><svg id="Layer_2" xmlns="http://www.w3.org/2000/svg" xmlns:xlink="http://www.w3.org/1999/xlink" viewBox="0 0 417.28 393.35"><defs><style>.cls-1{fill:#0c1539;}.cls-2{fill:#7681fa;}.cls-3{stroke-width:.56px;}.cls-3,.cls-4,.cls-5,.cls-6,.cls-7,.cls-8,.cls-9,.cls-10,.cls-11,.cls-12,.cls-13,.cls-14,.cls-15,.cls-16,.cls-17,.cls-18,.cls-19,.cls-20{fill:none;}.cls-3,.cls-6,.cls-9,.cls-12,.cls-17,.cls-18{stroke:#cf9580;stroke-linecap:round;stroke-linejoin:round;}.cls-4{stroke:#1d1c21;stroke-width:.87px;}.cls-4,.cls-5,.cls-7,.cls-8,.cls-10,.cls-11,.cls-13,.cls-15,.cls-16,.cls-19,.cls-20{stroke-miterlimit:10;}.cls-21{fill:#1d1c21;}.cls-5{stroke:#c14153;}.cls-5,.cls-13{stroke-width:.75px;}.cls-6{stroke-width:.62px;}.cls-7{stroke:#ac99e6;}.cls-7,.cls-19{stroke-width:.76px;}.cls-22{fill:#e7e4e1;}.cls-23{fill:#f2d289;}.cls-24{fill:#394044;}.cls-8{stroke-width:.63px;}.cls-8,.cls-10{stroke:#ce9e80;}.cls-25{fill:#88a8c8;}.cls-9{stroke-width:.54px;}.cls-26{fill:#de6769;}.cls-27{fill:#1f2326;}.cls-10{stroke-width:.68px;}.cls-28{fill:#d85965;}.cls-29{fill:#dc6d75;}.cls-11{stroke:#7899af;stroke-width:.74px;}.cls-30{fill:#d9ac91;}.cls-31{fill:#cf9580;}.cls-32{fill:#e9bda0;}.cls-12{stroke-width:.56px;}.cls-33{fill:#c64b59;}.cls-34{clip-path:url(#clippath);}.cls-35{fill:#0b1123;}.cls-13{stroke:#213a70;}.cls-36{fill:#f3d488;}.cls-37{fill:#cab6fc;}.cls-15{stroke:#ac384b;stroke-width:.76px;}.cls-38{fill:#0c1439;}.cls-39{fill:#5da394;}.cls-40{fill:#274491;}.cls-41{fill:#80a1bc;}.cls-16{stroke:#4d8779;stroke-width:.65px;}.cls-17{stroke-width:.57px;}.cls-42{fill:#ba4357;}.cls-18{stroke-width:.57px;}.cls-43{fill:#231917;}.cls-44{fill:#e6bda0;}.cls-19{stroke:#fcfffc;}.cls-20{stroke:#d4b165;stroke-width:.73px;}.cls-45{fill:#bd4751;}</style><clipPath id="clippath"><path class="cls-14" d="m207.97,39.14s8.82,1.36,10.29,11.37-4.37,13.36-1.86,21.27c2.51,7.92,5.92,10.47,5.92,10.47l-18.71,9.43s-3.89-7.99-5.77-19.89c0,0-8.8-9.76-6.88-16.81s10.25-15.37,10.25-15.37l6.76-.46Z"/></clipPath></defs><g id="OBJECTS"><g><g><g><polygon class="cls-44" points="66.26 17.01 73.17 32.76 62.41 37.11 56.43 23.98 66.26 17.01"/><path class="cls-44" d="m50.34,9.37l-.84,11.46c-.86,4.8,3.49,10.54,8.17,9.19l7.35-2.43-4.23-19.7c-.51-.74-8.75-3.31-10.45,1.48Z"/><path class="cls-44" d="m50.43,15.5l-2.57,3.7c-.35.5-.26,1.13.21,1.53l1.42.7.93-5.92Z"/><path class="cls-27" d="m63.76,18.79s-1.12,5.57,5.66,5.42l3.64-5.39c1.54-2.74,1.88-6.03.76-8.96-.9-2.37-2.68-4.95-6.14-6.76-8.18-4.29-16.91,2.55-17.34,6.27l8.07-.27,5.35,9.69Z"/><path class="cls-27" d="m57.64,6.88s-1.79,6.36,3.8,7.71l-3.8-7.71Z"/><polygon class="cls-27" points="59.3 11.96 59.06 16.45 62.88 16.82 61.97 12.56 59.3 11.96"/><path class="cls-44" d="m60.86,15.66c-.79,2.46,1.1,4.89,3.68,4.73,1.43-.09,2.72-1.09,3.16-2.45.79-2.46-1.1-4.89-3.68-4.73-1.43.09-2.72,1.09-3.16,2.45Z"/><path class="cls-31" d="m58.93,29.47s4.94-1.98,5.7-4.93c0,0-.35,5.65-3.96,8.74l-1.73-3.81Z"/><g><path class="cls-27" d="m51.19,16.25c.05.42.43.73.85.68.42-.05.73-.43.68-.85-.05-.42-.43-.73-.85-.68-.42.05-.73.43-.68.85Z"/><path class="cls-27" d="m54.38,13.34s-.09.01-.14.01l-2.97-.04c-.39,0-.7-.32-.7-.71,0-.39.32-.7.71-.7l2.97.04c.39,0,.7.32.7.71,0,.34-.24.62-.56.69Z"/><path class="cls-6" d="m49.64,23.41s1.62.27,2.67-1.04"/></g></g><g><path class="cls-45" d="m71.8,11.59l13.45,1.67c.51.06.96-.3,1.01-.81h0c.05-.49-.31-.93-.8-.99l-15.74-1.85,2.07,1.98Z"/><path class="cls-26" d="m74.35,11.92l-24.01-2.55s-.24-10.3,14.46-9.31c0,0,9.67,1.34,9.56,11.86Z"/><path class="cls-27" d="m52.5,3.79s3.32.37,2.53,4.26l-4.45-.45s.7-2.67,1.92-3.81Z"/></g></g><g><g><path class="cls-30" d="m70.73,49.35s-2.53,5.63-8.34,6.86c0,0-9.83,10.07-14.17,13.97-3.52,3.15-8.17,2.18-8.7-2.52h0c-.17-1.49.25-2.99,1.16-4.19l17.24-22.32,12.82,8.2Z"/><path class="cls-30" d="m48.36,63.89l-17.77-20.91s-5.02,2.52-4.47,3.9c5.56,14.04,14.66,23.73,14.66,23.73l7.58-6.73Z"/><path class="cls-30" d="m25.39,34.14c-3.61.66-6.01,4.11-5.35,7.73s4.11,6.01,7.73,5.35c3.61-.66,6.01-4.11,5.35-7.73-.66-3.61-4.11-6.01-7.73-5.35Z"/><path class="cls-30" d="m57.98,38.7s-7.27,2.5-7.49,10.47c-.18,6.41,7.67,6.79,7.67,6.79l-.18-17.26Z"/><path class="cls-10" d="m44.1,58.97s2.16,2.45,2.21,6.74"/></g><g><path class="cls-44" d="m64.21,35.5l-6.23,3.2s-10.07,21.29-2.65,42.65l19.73-9.62s9.34-13.77,7.4-26.2c0,0-1.22-11.84-7.06-12.66-5.84-.82-11.18,2.63-11.18,2.63Z"/><path class="cls-22" d="m55.32,81.34l22.99-4.47-1.91-5.25s3.82-5.94,5.64-16.46c0,0-4.7,10.47-12.08.9-7.38-9.58-1.12-21.33,5.7-23.28l-2.39-.07s-2.69-.41-7.2,6.64-4.82,7.22-6.27,6.99c-2.34-.37-1.58-6.72-.08-8.59l-1.74.86s-2.98,2.77-6.1,14.94c0,0-1.98,15.8,3.44,27.78Z"/></g><g><path class="cls-44" d="m75.39,32.86s6.15-.47,10.01,4.05c0,0,13.54,3.82,19.04,5.78,4.45,1.59,5.82,6.14,1.94,8.85h0c-1.23.86-2.75,1.21-4.23.98l-27.84-4.49,1.08-15.18Z"/><polygon class="cls-44" points="98.85 45.57 90.06 72.87 95.62 74.94 108.38 49.02 98.85 45.57"/><path class="cls-44" d="m85.32,82.53c2.3,2.86,6.48,3.32,9.35,1.02,2.86-2.3,3.32-6.48,1.02-9.35-2.3-2.86-6.48-3.32-9.35-1.02-2.86,2.3-3.32,6.48-1.02,9.35Z"/><line class="cls-10" x1="82.81" y1="49.41" x2="74.31" y2="48.04"/><path class="cls-10" d="m96.88,51.68s2.02-1.95,4.04-1.36"/></g></g><g><g><path class="cls-44" d="m68.02,110.92s4.92,12.76,16.82,25.33c1.26,1.34,3.37,1.42,4.76.22l32.8-27.23-5.1-4.65s-4.19,2.94-8.67,4.34c-4.48,1.4-15,4.55-19.1,11.02-4.32-18.03-4.41-19.02-5.38-21.66l-16.13,12.64Z"/><path class="cls-42" d="m81.94,83.98s4.33,9.35,6.31,18.78l-20.23,8.15-3.72-9.24,17.64-17.69Z"/><path class="cls-22" d="m116.2,105.33l-11.73,4.94s4.13,3.96,5.53,9.1l11.3-9.04-5.1-5Z"/><g><path class="cls-27" d="m120.67,112.47l7.93,3.17,3.82,3.22c1.76,1.48,4.28,1.62,6.19.35l.9-.59-16.95-21.25-8.03,7.36,6.14,7.74Z"/><polyline points="122.62 97.18 139.71 118.59 137.87 120.06 120.78 98.64 122.62 97.18"/></g></g><g><path class="cls-44" d="m45.22,98.13l-12.12,17.74c-.53.73-.94,1.55-1.19,2.43l-12.37,46.79,7.57,2.48s5.31-12,7.58-15.8c2.03-3.39,9.43-14.37,9.55-27.81l21.79-17.94-20.82-7.88Z"/><polygon class="cls-33" points="55.32 81.34 57.37 90.42 78.84 86.1 78.31 76.88 55.32 81.34"/><path class="cls-33" d="m57.44,83.46c-.45.35-12.22,14.66-12.22,14.66l15.77,15.78s25.6-14.86,22.17-26.6c0,0-1.58-5.28-4.84-10.43l-20.87,6.58Z"/><path class="cls-15" d="m83.42,88.26s1.58,6.74-11.45,17.92l-4.48,3.44"/><path class="cls-22" d="m27.12,167.56l5.3-11.45s-5.46,0-9.63-3.33l-3.77,13.62,8.09,1.15Z"/><g><path class="cls-27" d="m19.45,164l-8.42,1.42-4.94-.76c-2.27-.35-4.5.84-5.47,2.92l-.46.97,25.54,9.32,3.02-10.46-9.28-3.41Z"/><polyline points="25.74 178.07 0 168.68 .81 166.47 26.54 175.86 25.74 178.07"/></g></g></g></g><g><g><g><path class="cls-27" d="m211.84,18.14s7.47-10.22,17.46-2.35c9.99,7.87,18.8-.59,18.8-.59,0,0-2.48,20.98-18.13,13.23-9.65-4.77-9.12-10.88-18.13-7.67v-2.62Z"/><path class="cls-25" d="m209.96,16.21s2.61-1.56,4.15,1.04c1.54,2.6-.54,5.34-2.29,5.13s-2.87-5.09-2.87-5.09l1-1.07Z"/></g><path class="cls-27" d="m212.05,21.81c-.29,6.74-5.98,11.97-12.72,11.68-6.74-.29-11.97-5.98-11.68-12.72.29-6.74,5.05-12.01,11.79-11.72,6.74.29,12.89,6.02,12.61,12.76Z"/><path class="cls-27" d="m193.66,11.26s-6.67-.66-7.53,4.54c-.7,4.24,5.73,5.58,5.73,5.58l1.79-10.12Z"/><path class="cls-44" d="m194.16,13.47c-5.88-.25-6.2,4.34-6.2,4.34l-1.47,10.68c-.05,3.36.53,6.3,3.12,7.95,1.63,1.04,3.67,1.23,5.55.74l5.46-1.43,1.85-18.34s-2.43-3.69-8.31-3.94Z"/><polygon class="cls-44" points="202.41 25.92 210.73 44.74 201.2 47.8 193.84 31.74 202.41 25.92"/><path class="cls-44" d="m187.6,24.27l-2.33,2.48c-.36.45-.31,1.04.11,1.45l1.67,1.04.56-4.97Z"/><g><path class="cls-27" d="m188.34,24.3c.02.4.36.71.76.69.4-.02.71-.36.69-.76-.02-.4-.36-.71-.76-.69-.4.02-.71.36-.69.76Z"/><path class="cls-27" d="m191.69,22.03s-.09,0-.13,0l-2.78-.22c-.37-.02-.64-.34-.62-.71.02-.37.34-.64.71-.62l2.78.22c.37.02.64.34.62.71-.02.32-.26.57-.57.61Z"/><path class="cls-17" d="m186.74,30.54s1.32.45,2.78-.52"/></g><path class="cls-31" d="m196.18,36.9s4.38-1.59,5.26-4.31c0,0-.7,3.84-4.27,6.52l-.99-2.21Z"/><path class="cls-27" d="m190.22,14.31s.31,6.99,10.2,9.34l4.42-.61s-1.3-10.17-3.22-10.32c-1.92-.15-10.35-1.03-11.39,1.59Z"/><polygon class="cls-27" points="195.9 20.1 197.53 26.48 199.42 21.4 195.9 20.1"/><path class="cls-27" d="m199.73,27.81s2.03,3.83,5.42,4.48l1.33-6.28-6.75,1.8Z"/><path class="cls-44" d="m197.23,25.07c-.34,1.77.82,3.49,2.6,3.83,1.77.34,3.49-.82,3.83-2.6.34-1.77-.82-3.49-2.6-3.83-1.77-.34-3.49.82-3.83,2.6Z"/></g><g><g><path class="cls-30" d="m204.47,39.5s10.05.3,13.78,4.39c0,0,13.39,4.08,18.56,5.74,4.19,1.34,5.59,5.54,2.07,8.17h0c-1.12.84-2.52,1.21-3.91,1.04l-32.22-6.75,1.71-12.59Z"/><polygon class="cls-30" points="231.67 52.19 232.79 78.85 238.31 78.87 240.88 54.6 231.67 52.19"/><path class="cls-30" d="m231.76,88.81c2.93,1.76,6.73.81,8.49-2.12,1.76-2.93.81-6.73-2.12-8.49-2.93-1.76-6.73-.81-8.49,2.12-1.76,2.93-.81,6.73,2.12,8.49Z"/><path class="cls-8" d="m231.9,58.2s1.82-1.87,3.72-1.38"/></g><g><path class="cls-44" d="m207.97,39.14s8.82,1.36,10.29,11.37-4.37,13.36-1.86,21.27c2.51,7.92,5.92,10.47,5.92,10.47l-18.71,9.43s-3.89-7.99-5.77-19.89c0,0-8.8-9.76-6.88-16.81s10.25-15.37,10.25-15.37l6.76-.46Z"/><g class="cls-34"><path class="cls-36" d="m197.21,44.13s8.27,1.26,5.07,10.41c-2.65,7.59-12.22,5.28-14.11,4.56l7.16,13.11,2.08,3.96s12.99.26,20.11-6.68l3.58-10.82-2.88-18.21-9.11-2.61-.69,1.37s6.88,5.03,4.01,7.1-6.82-.71-8.28-1.57c-2.39-1.41-5.14-2.66-7.3-2.3l.34,1.66Z"/><path class="cls-36" d="m197.83,71.78s11.34,1.22,19.22-6.39l-.95,5.33s-4.85,5.26-18.69,5.45l.42-4.39Z"/></g><path class="cls-20" d="m197.83,71.78s10.18,1.17,18-5.3"/></g><g><path class="cls-44" d="m202.28,54.54s-2.14,6.35-7.64,6.92c0,0-11.22,8.37-15.62,11.56-3.56,2.58-7.78,1.22-7.81-3.17h0c-.01-1.4.52-2.75,1.48-3.76l24.52-21.96,5.07,10.41Z"/><polygon class="cls-44" points="179.77 67.22 163.46 46.09 158.94 49.27 172.1 72.71 179.77 67.22"/><path class="cls-44" d="m158.55,37.37c-3.41.26-5.96,3.23-5.7,6.63.26,3.41,3.23,5.96,6.63,5.7s5.96-3.23,5.7-6.63c-.26-3.41-3.23-5.96-6.63-5.7Z"/><path class="cls-8" d="m176.12,62.49s.43,2.58-1.09,3.82"/><path class="cls-44" d="m197.21,44.13s-5.29,1.22-8.08,7.24c-2.79,6.02,7.2,1.47,7.2,1.47l.88-8.71Z"/></g></g><g><g><path class="cls-44" d="m199.12,98.46s-10.03,6.73-19.79,23.39c-.66,1.13-.75,2.5-.28,3.72l18.02,46.82,6.58-1.2-4.21-17.97c-.68-2.89-.91-5.86-.79-8.83.19-4.84-.56-13.34-7.09-19.35,0,0,15.2-10.19,20.19-15.6l-12.63-10.98Z"/><path class="cls-41" d="m205.41,91.34l-9.29,8.35s10.68,15.78,11.57,15c.89-.78,6.65-2.4,6.65-2.4l-8.92-20.96Z"/><path class="cls-22" d="m202.61,166.9c0,.07-2.35-10.2-2.35-10.2,0,0-3.98,2.46-8.52,1.83l4.23,11.09,6.64-2.73Z"/><g><path class="cls-27" d="m195.08,167.25l-5.98,4.21-4.1,1.24c-1.88.57-3.17,2.32-3.15,4.28v.92s23.19-2.26,23.19-2.26l-1.54-9.2-8.43.8Z"/><polyline points="205.15 175.8 181.79 178.07 181.59 176.06 204.96 173.79 205.15 175.8"/></g></g><g><path class="cls-44" d="m212.9,108.28s6.88,17.05,19.7,30.28l46.71,10.2.82-6.52-11.86-4.86c-2.62-1.07-5.08-2.5-7.21-4.36-3.14-2.73-9.81-5.75-21.01-4.34,0,0-8.87-24.52-15.25-28.67l-11.9,8.27Z"/><path class="cls-25" d="m202.37,89.48s8.05-6.96,18.03-9.2c0,0,15.83,9.06,8.95,22.15l2.48,5.65s-12.39,5.52-18.59,8.55c0,0-8.9-13.21-10.87-27.14Z"/><path class="cls-11" d="m203.11,93.41s2.76,12.69,8.08,19.85"/><path class="cls-22" d="m277.48,141.06c.06.04-10.01-4.03-10.01-4.03,0,0-.43,5.04-3.6,8.36l11.95,2.66,1.66-6.98Z"/><g><path class="cls-27" d="m275.81,147.95l2.57,6.85.17,4.28c.08,1.97,1.45,3.65,3.35,4.12l.89.22,3.65-23.01-9.29-.83-1.35,8.36Z"/><polyline points="286.61 140.35 282.94 163.54 280.95 163.22 284.62 140.03 286.61 140.35"/></g></g></g></g><g><g><g><path class="cls-44" d="m237.84,295.21s28.24.59,32.66.59c3.58,0,5.71-2.91,3.64-5.82h0c-.66-.93-1.65-1.56-2.77-1.78l-28.48-2.76-5.04,9.77Z"/><polygon class="cls-44" points="270.09 288.05 300.15 284.89 301.53 288.42 272.38 295.38 270.09 288.05"/><path class="cls-44" d="m242.88,285.44s4.07-1.72,8.79.91c4.72,2.64-4.05,4.41-4.05,4.41l-4.74-5.32Z"/><path class="cls-44" d="m297.6,288.44s.53-3.63,5.85-5.14c3.65-1.04,13.9-3.05,14.58-1.56.58,1.26-6.44,1.84-10.77,4.38l4.18-.07c.72.12,1.24.53,1.01,1.23h0c-.17.54-.71.88-1.27.82l-5.51.63s-5.41,1.47-8.07-.28Z"/></g><path class="cls-29" d="m242.01,281.54s-5.12-5.72-12.61-2.28c-7.49,3.44-6.99,9.14-13.56,10.9-6.57,1.76-9.92.45-9.92.45l-1.15,17.67s10.91-.8,19.88-4.8c0,0,11.42,1.93,15.29-2.62,1.97-2.31,3.26-5.86,3.67-8.99.64-4.86.5-6.65-1.2-9.61l-.42-.73Z"/><g><path class="cls-44" d="m192.26,231.62s-1.51-13.27-7.31-7.46c-5.8,5.81-1.15,9.93,4.83,12.74l2.48-5.28Z"/><path class="cls-44" d="m208.63,262.16c.01.41,9.39,13.64,14.9,22.34,2.25,3.55,7.3,3.92,10.04.73h0c2.03-2.35,2.03-5.84,0-8.19l-19.58-20.12-5.37,5.24Z"/><path class="cls-44" d="m214.27,259.75s.03-7.17-6.12-12.07c-6.15-4.9-15.89-16.05-15.89-16.05l-2.48,5.28s14.59,22.49,18.86,25.86c4.27,3.37,5.62-3.02,5.62-3.02Z"/></g></g><g><g><path class="cls-44" d="m187.9,347.14l8.78.83c3.5-14.59,3.51-32.55,3.51-32.55l-14.87-5.17c-2.75,5.55,2.58,36.88,2.58,36.88Z"/><path class="cls-44" d="m186.89,366.44c1.03,2.06,1.67,4.29,1.99,6.57l2.05,10.94,5.31.66.76-39.52-9.1,2.05c-3.37,8.55-2.53,16.27-1.01,19.3Z"/><path class="cls-35" d="m201.76,305.37s-1.01,10.39-1.63,13.34c0,0-8.61,2.26-15.77-1.63,0,0-2.38-16.3-.27-20.03,2.11-3.73,17.67,8.32,17.67,8.32Z"/><path class="cls-44" d="m190.73,383.9s-1.99,3.61-2.09,6.48c-.03.84.64,1.54,1.48,1.6l20.11,1.37c.88.06,1.62-.64,1.6-1.52h0c-.01-.59-.36-1.12-.9-1.35l-15.45-6.66-4.74.09Z"/></g><g><path class="cls-44" d="m168.7,262.43l-9.64,2.92c6.51,13.51,17.44,25.49,17.44,25.49l9.83-8.7c-1.38-6.04-17.62-19.71-17.62-19.71Z"/><path class="cls-44" d="m178.14,248.88c.2-2.29.83-4.53,1.76-6.63l3.58-8.16-3.09-5.46-22.05,33.11,9.95,1.57c7.36-5.51,9.56-11.06,9.85-14.43Z"/><path class="cls-44" d="m158.33,261.74s-.37,1.41.73,3.6c1.1,2.19,8.95-2.92,8.95-2.92l-9.68-.68Z"/><path class="cls-44" d="m181.46,233.95s4,.97,6.8.32c.82-.19,1.32-1.02,1.16-1.84l-3.94-19.76c-.17-.86-1.04-1.39-1.89-1.15h0c-.56.16-.98.64-1.06,1.23l-2.38,16.66,1.32,4.55Z"/><path class="cls-44" d="m182.3,221.26l.17.11c1.24.8,1.88,2.27,1.61,3.72l-.37,1.98c-.27,1.45-1.74,2.35-3.16,1.93h0c-.71-.21-1.18-.9-1.11-1.64l.45-4.93c.11-1.17,1.41-1.8,2.4-1.17Z"/><path class="cls-8" d="m187.53,222.97s2.66,9.85,1.69,10.57c-.97.72-3.33.94-3.33.94"/><path class="cls-8" d="m180.27,228.88s3.84.9,3.82-3.79c-.03-4.69-2.75-4.06-2.75-4.06"/><path class="cls-38" d="m204.78,308.29s-16.28-.22-28.29-17.45c0,0,1.68-8.99,6.56-14.25l4.96,7.09s13.31-2.52,17.91,6.94c0,0,2.49,15.57-1.15,17.67Z"/></g></g><g><g><polygon class="cls-44" points="245.38 269.19 237.05 279.11 239.97 287.83 251.09 274.63 245.38 269.19"/><path class="cls-44" d="m237.05,279.11s-2.74,15.82,2.69,15.83c4.02,0,2.69-15.83,2.69-15.83h-5.38Z"/></g><g><path class="cls-27" d="m238.01,259.69s3.78-5.73-1.09-7.62c-4.62-1.79-7.32,4.83-7.48,5.69-.16.86-1.87,5.56,2.02,8,3.89,2.44,6.54-6.07,6.54-6.07Z"/><path class="cls-29" d="m241.78,258.34s-1.96-2.12-4.06-.16-.93,5.01.71,5.28c1.65.27,3.97-3.87,3.97-3.87l-.63-1.25Z"/></g><path class="cls-27" d="m237.7,262.87c-1.54,6.21,2.25,12.49,8.46,14.03,6.21,1.54,12.49-2.25,14.03-8.46,1.54-6.21-1.39-12.28-7.6-13.81-6.21-1.54-13.34,2.04-14.88,8.25Z"/><path class="cls-27" d="m257.26,258.18s6.25,1.18,5.64,6.14c-.5,4.05-6.71,3.55-6.71,3.55l1.07-9.69Z"/><path class="cls-44" d="m256.22,260.06c5.42,1.34,4.48,5.61,4.48,5.61l-1.51,10.12c-.85,3.07-2.16,5.59-4.96,6.4-1.77.51-3.67.14-5.25-.81l-4.59-2.76,3.21-17.19s3.2-2.71,8.62-1.37Z"/><path class="cls-44" d="m259.42,270.97l1.74,3.55c.2.5,0,1.03-.48,1.29l-2.2.5.94-5.35Z"/><g><path class="cls-27" d="m258.62,271.47c-.12.36-.52.55-.87.42-.36-.12-.55-.52-.42-.87.12-.36.52-.55.87-.42.36.12.55.52.42.87Z"/><path class="cls-27" d="m256.26,268.27s.08.03.12.04l2.58.54c.34.08.67-.14.75-.48.08-.34-.14-.67-.48-.75l-2.58-.54c-.34-.08-.67.14-.75.48-.07.3.09.59.36.71Z"/><path class="cls-9" d="m258.42,277.58s-1.32.06-2.39-1.22"/></g><path class="cls-31" d="m246.67,279.99s-1.17-1.9-1.25-4.61c0,0-1.28,2.86-.14,6.15l1.39-1.54Z"/><path class="cls-27" d="m259.58,261.88s-2.15,6.28-11.77,5.78l-3.86-1.74s3.9-8.91,5.69-8.53c1.79.38,9.7,1.83,9.95,4.49Z"/><polygon class="cls-27" points="252.86 265.63 249.68 271 249.31 265.88 252.86 265.63"/><path class="cls-27" d="m247.31,271.62s-2.87,2.95-6.13,2.63l.47-6.07,5.66,3.44Z"/><path class="cls-44" d="m250.32,269.8c-.16,1.71-1.68,2.95-3.39,2.79-1.71-.16-2.95-1.68-2.79-3.39s1.68-2.95,3.39-2.79c1.71.16,2.95,1.68,2.79,3.39Z"/></g></g><g><g><g><polygon class="cls-37" points="368.9 153.33 373.11 170.31 380.7 169.89 377.3 152.81 368.9 153.33"/><g><path class="cls-2" d="m380.7,169.14l5.89,3.41,3.9.81c1.79.37,3.13,1.88,3.27,3.71l.07.85-21.68-.17.66-8.66,7.88.04Z"/><polyline points="372.07 177.9 393.92 178.07 393.94 176.19 372.09 176.02 372.07 177.9"/></g></g><g><polygon class="cls-37" points="345.55 153.33 345.11 170.31 337.52 169.89 337.16 152.81 345.55 153.33"/><g><path class="cls-2" d="m337.52,169.14l-5.89,3.41-3.9.81c-1.79.37-3.13,1.88-3.27,3.71l-.07.85,21.68-.17-.66-8.66-7.88.04Z"/><polyline points="346.15 177.9 324.3 178.07 324.29 176.19 346.14 176.02 346.15 177.9"/></g></g><g><path class="cls-37" d="m338.26,66.72s-8.98,5.76-8.56,21.44c.37,13.87,4.05,63.64,5.79,74.97.21,1.33,1.35,2.31,2.7,2.31h7.23c1.54,0,2.78-1.27,2.73-2.81l1.65-71,18.86,71.35c.37,1.45,1.68,2.47,3.18,2.47h6.34c2.02,0,3.56-1.81,3.24-3.81l-10.27-63.49s-4.83-26.65-10.99-31.42h-21.9Z"/><polyline class="cls-7" points="349.79 91.63 349.79 85.47 355.57 77.71"/><path class="cls-19" d="m341.78,67.49s-7.08,4.63-7.16,28.6,3.57,69.35,3.57,69.35"/><line class="cls-19" x1="337.43" y1="165.44" x2="345.41" y2="165.44"/><line class="cls-19" x1="372.07" y1="165.44" x2="379.63" y2="165.44"/></g></g><g><g><g><rect class="cls-29" x="306.02" y="86.17" width="18.14" height="4.32" transform="translate(-7.52 33.47) rotate(-6.01)"/><rect class="cls-29" x="302.45" y="84.65" width="4.93" height="9.52" rx=".75" ry=".75" transform="translate(-7.68 32.41) rotate(-6.01)"/><rect class="cls-29" x="321.24" y="82.67" width="4.93" height="9.52" rx=".75" ry=".75" transform="translate(-7.37 34.36) rotate(-6.01)"/></g><path class="cls-32" d="m343.21,42.99s-.8-12.48-9.58-7.7l-17.14,15.07c-2.28,1.61-2.87,4.74-1.32,7.06l4.42,4.42,23.62-18.85Z"/><path class="cls-32" d="m323.54,57.42l-7.72,27.79-5.36-1.17,3.35-29.4c.64-3.88,5.04-6.16,8.37-4.07h0c2.31,1.45,2.45,4.35,1.36,6.85Z"/><path class="cls-32" d="m319.7,85.8c1.08,2.98-.47,6.26-3.44,7.34-2.98,1.08-6.26-.47-7.34-3.44-1.08-2.98.46-6.26,3.44-7.34,2.98-1.08,6.26.47,7.34,3.44Z"/></g><g><g><rect class="cls-29" x="384.62" y="25.58" width="18.14" height="4.32" transform="translate(34.15 -135.02) rotate(20.32)"/><rect class="cls-29" x="381.63" y="19.43" width="4.93" height="9.52" rx=".75" ry=".75" transform="translate(32.32 -131.91) rotate(20.33)"/><rect class="cls-29" x="399.35" y="26" width="4.93" height="9.52" rx=".75" ry=".75" transform="translate(35.7 -137.65) rotate(20.33)"/></g><g><path class="cls-32" d="m374.87,58.89l-16.8-15.44.35-9.87s3.44-1.85,8.3,2.79h0s.47.45.68.68l13.8,16.02-6.33,5.83Z"/><path class="cls-32" d="m374.7,50.31l16.43-23.19,4.21,2.83-11.88,27.1c-2.21,3.68-7.46,3.93-10,.46h0c-1.76-2.4-.87-5.1,1.24-7.2Z"/><path class="cls-32" d="m398.34,25.97c1.08,2.98-.47,6.26-3.44,7.34-2.98,1.08-6.26-.47-7.34-3.44-1.08-2.98.47-6.26,3.44-7.34,2.98-1.08,6.26.47,7.34,3.44Z"/></g></g><g><path class="cls-2" d="m355.57,33.26h3.45s5.61,6.26,6.63,12.08-4.03,11.78-4.03,11.78l-1.46,9.61h-21.9l-2.71-18.04s5.45-7.27,1.36-14.53l4.05-.11,14.6-.78Z"/><line class="cls-19" x1="338.26" y1="66.72" x2="360.16" y2="66.72"/></g></g><g><g><path class="cls-32" d="m343.4,34.36v-9.2h9.54v9.2c0,2.63-2.13,4.77-4.77,4.77h0c-2.63,0-4.77-2.13-4.77-4.77Z"/><path class="cls-31" d="m343.05,21.42s1.06,11.39,9.89,10.7v-5.7s-9.89-4.99-9.89-4.99Z"/><path class="cls-32" d="m355.57,33.26l-14.6.78s6.5,7.02,10.74,7.57c0,0,3.02-1.89,3.86-8.35Z"/></g><g><path class="cls-1" d="m336.97,17.53s.11-4.78-5.07-4.25c-9.59.98-4.07,15.58-16.11,13.31,0,0,4.09,7.78,11.34,5.71,7.25-2.07,9.63-12.2,9.63-12.2l.22-2.57Z"/><path class="cls-2" d="m334.94,12.88s-2.98.85-2.13,3.81c.85,2.96,4.34,3.33,5.4,1.89,1.06-1.45-1.77-5.69-1.77-5.69h-1.5Z"/></g><path class="cls-1" d="m348.16,9.86s7.19,7.11,12.96,3.27c0,0,.67-12.02-14.07-11.38-14.18.62-16.62,20.42-5.27,22.82,9.32,1.96,6.38-14.71,6.38-14.71Z"/><path class="cls-31" d="m362.06,19.03c.02,1.68-1.33,3.05-3.01,3.07-1.68.02-3.05-1.33-3.07-3.01-.02-1.68,1.33-3.05,3.01-3.07,1.68-.02,3.05,1.33,3.07,3.01Z"/><path class="cls-44" d="m344.1,8.28h11.86c2.3,0,4.17,1.87,4.17,4.17v8.34c0,4.97-4.04,9.01-9.01,9.01h-.34c-4.97,0-9.01-4.04-9.01-9.01v-10.18c0-1.29,1.05-2.33,2.33-2.33Z" transform="translate(-.16 3.24) rotate(-.53)"/><g><path class="cls-27" d="m352.18,18.18c-.03.38-.35.67-.73.64-.38-.03-.67-.35-.64-.73.03-.38.35-.67.73-.64s.67.35.64.73Z"/><path class="cls-27" d="m358.06,18.1c-.03.38-.35.67-.73.64s-.67-.35-.64-.73c.03-.38.35-.67.73-.64s.67.35.64.73Z"/><path class="cls-3" d="m355.38,19.09l.19,1.85s-.11,1.04-1.6.65"/><path class="cls-1" d="m349.63,16.13s.08,0,.13,0l3.11-.14c.35-.02.62-.31.6-.66-.02-.35-.31-.62-.66-.6l-3.11.14c-.35.02-.62.31-.6.66.01.3.24.55.53.59Z"/><path class="cls-1" d="m356.72,15.93s.08,0,.13,0l1.9-.09c.35-.02.62-.31.6-.66-.02-.35-.31-.62-.66-.6l-1.9.09c-.35.02-.62.31-.6.66.01.3.24.55.53.59Z"/><path class="cls-3" d="m351.29,22.18s.28,2.03,4.06,1.29"/></g><path class="cls-1" d="m344.77,14.59v4.25s-3.98.03-3.98.03l-.76-11.1,12.91-1.15s-.66,7.2-8.16,7.97Z"/><path class="cls-44" d="m343.83,18.84c.02,1.68-1.33,3.05-3.01,3.07-1.68.02-3.05-1.33-3.07-3.01-.02-1.68,1.33-3.05,3.01-3.07s3.05,1.33,3.07,3.01Z"/><path class="cls-1" d="m361.12,13.14s-5.77,4.3-13.18-4.19c0,0,4.39-4.51,10.14-1.66,0,0,2.75,3.53,3.04,5.85Z"/></g></g><g><g><g><g><path class="cls-44" d="m64.68,252.2s-12.76-4.95-14.12,5.93l-8.76,19.52,6.35,4.62,14.94-23.51,1.59-6.56Z"/><path class="cls-44" d="m40.6,274.71l-19.88,11.36,2.43,5,23.11-7.44c2.87-1.3,4.11-4.7,2.75-7.54h0c-1.48-3.09-5.57-3.29-8.41-1.38Z"/><path class="cls-44" d="m17.01,291.9c-2.81-1.38-3.98-4.78-2.6-7.6,1.38-2.81,4.78-3.98,7.6-2.6,2.81,1.38,3.98,4.78,2.6,7.6-1.38,2.81-4.78,3.98-7.6,2.6Z"/></g><path class="cls-23" d="m53.42,246.64s-6.07-1.14-8.91,10.31l-2.27,6.95,11.9,7.5-.71-24.76Z"/><rect class="cls-21" x="8.49" y="285.04" width="14.85" height="3.54" rx="1.35" ry="1.35"/><path class="cls-44" d="m16.1,282.27l-2.65,2.38c-.59.53-.33,1.51.45,1.67h0c.21.04.43.02.62-.08l3.93-1.92-2.35-2.06Z"/><path class="cls-44" d="m14.12,288.57v-.3c0-.64.5-1.16,1.14-1.18l6.94-.22c.74-.02,1.32.63,1.2,1.36l-.28,1.74-9-1.4Z"/></g><g><polygon class="cls-23" points="52 246.71 62.6 244.37 79.36 244.76 82.68 259.76 79.92 290.25 49.82 290.56 52 246.71"/><line class="cls-20" x1="50.51" y1="269.12" x2="50.56" y2="259.11"/></g><g><path class="cls-44" d="m79.47,263.43s8.2-16.19,9.56-5.31l8.76,19.52-6.35,4.62-11.97-18.84h0Z"/><path class="cls-44" d="m98.99,274.71l19.88,11.36-2.43,5-23.11-7.44c-2.87-1.3-4.11-4.7-2.75-7.54h0c1.48-3.09,5.57-3.29,8.41-1.38Z"/><path class="cls-23" d="m79.36,244.76s7.37-1.36,10.21,10.09l2.27,6.95-13.64,7.5,1.16-24.54Z"/><path class="cls-44" d="m122.58,291.9c2.81-1.38,3.98-4.78,2.6-7.6-1.38-2.81-4.78-3.98-7.6-2.6-2.81,1.38-3.98,4.78-2.6,7.6,1.38,2.81,4.78,3.98,7.6,2.6Z"/><rect class="cls-21" x="114.4" y="285.04" width="14.85" height="3.54" rx="1.35" ry="1.35"/><path class="cls-44" d="m122.78,282.27l2.65,2.38c.59.53.33,1.51-.45,1.67h0c-.21.04-.43.02-.62-.08l-3.93-1.92,2.35-2.06Z"/><path class="cls-44" d="m124.75,288.57v-.3c0-.64-.5-1.16-1.14-1.18l-6.94-.22c-.74-.02-1.32.63-1.2,1.36l.28,1.74,9-1.4Z"/><polyline class="cls-20" points="81.9 267.26 80.37 268.1 76.42 258.76"/></g><path class="cls-4" d="m9.09,286.57s-9.97,4.67,16.1,37.97c26.08,33.3,61.75,61.05,82.37,42.42,20.61-18.63,24.9-78.48,20.82-80.56"/></g><g><g><path class="cls-30" d="m67.47,352.79c.99-5.6-2.02-14.15-3.72-18.37,3.73-20.51,4.13-33.3,4.13-33.3l-17.7,8.48-.31,27.57c0,.68.08,1.37.25,2.03l10.08,38.51,7.73-.77s-1.83-16.48-.47-24.14Z"/><path class="cls-22" d="m67.17,375.14l-2.24-17.2s-2.45,2.35-9.42,1.85l4.17,16.16,7.48-.82Z"/><g><path class="cls-24" d="m59.12,375.6l-6.53,4.75-4.5,1.44c-2.07.66-3.46,2.61-3.41,4.78l.02,1.02,25.62-2.88-1.91-10.13-9.3,1.02Z"/><polyline points="70.44 384.86 44.62 387.76 44.37 385.55 70.19 382.65 70.44 384.86"/></g><path class="cls-39" d="m50.69,290.56c-2.5,3.69-2.1,21.4-2.1,21.4l13.62.36,2.43-21.92-13.94.16Z"/></g><g><path class="cls-44" d="m79.9,306.11l-18.45,6.69-1.95,25c-.05.67-.04,1.34.04,2l5.14,41.77h7.77s-.19-16.58,1.92-24.07c1.54-5.47-.61-14.28-1.88-18.65,5.74-20.04,7.41-32.73,7.41-32.73Z"/><path class="cls-39" d="m79.12,290.25s5.2,12.33,1.98,22.87l-19.65-.33-1.16-22.34,18.84-.2Z"/><polyline class="cls-16" points="61.45 312.79 61.36 302.41 57.4 299.3"/><path class="cls-22" d="m72.42,382.12l.93-19.17s-4.22,2.1-10.87.77l2.35,19.62,7.59-1.21Z"/><g><path class="cls-24" d="m64.36,380.81l-6.41,4.92-4.47,1.56c-2.05.72-3.39,2.7-3.28,4.87l.05,1.02,25.54-3.54-2.17-10.08-9.27,1.26Z"/><polyline points="75.92 389.78 50.18 393.35 49.87 391.14 75.61 387.57 75.92 389.78"/></g></g></g><g><path class="cls-43" d="m63.04,212.65c-6.7-.06-8.94,5.44-8.94,5.44l7.94,5.66,5.63-4.69"/><g><path class="cls-44" d="m69.24,244.25l-2.52-15.77-11.31,1.81,2.52,15.77c.5,3.12,3.44,5.25,6.56,4.75h0c3.12-.5,5.25-3.44,4.75-6.56Z"/><path class="cls-31" d="m67.27,229.26s.91,13.7-9.58,15.11l-1.07-6.77,10.65-8.35Z"/><path class="cls-44" d="m72.59,244.6s-.42,8.47-8.99,8.19c-8.45-.28-6.99-7.1-6.99-7.1l5.99-1.32,9.99.23Z"/></g><path class="cls-43" d="m48.93,221.12s-4.45,1.73-.37,8.18l2.27-4.95-1.9-3.24Z"/><path class="cls-31" d="m53.67,230.64c.27,1.74-.92,3.38-2.67,3.65-1.74.27-3.38-.92-3.65-2.67-.27-1.74.92-3.38,2.67-3.65,1.74-.27,3.38.92,3.65,2.67Z"/><path class="cls-44" d="m60.09,241.23h0c-4.85.75-9.27-1.55-10.03-6.4l-1.5-9.67c-.33-2.11,1.13-4.11,3.24-4.44l9.96-1.55c2.11-.33,4.11,1.13,4.44,3.24l1.29,8.31c.75,4.85-3.31,9.87-7.4,10.51Z"/><path class="cls-43" d="m65.53,227.65h0s-5.8-2.07-3.77-8.49l2.07-1.25s3.56-1.75,6.66,1.01c2.78,2.48-1.52,8.19-1.52,8.19l-3.44.54Z"/><path class="cls-44" d="m71.04,227.94c.27,1.74-.92,3.38-2.67,3.65-1.74.27-3.38-.92-3.65-2.67-.27-1.74.92-3.38,2.67-3.65s3.38.92,3.65,2.67Z"/><g><path class="cls-43" d="m57.68,229.55c.09.38.47.62.85.53.38-.09.62-.47.53-.85-.09-.38-.47-.62-.85-.53-.38.09-.62.47-.53.85Z"/><path class="cls-43" d="m51.08,230.52c.09.38.47.62.85.53.38-.09.62-.47.53-.85-.09-.38-.47-.62-.85-.53-.38.09-.62.47-.53.85Z"/><path class="cls-12" d="m53.96,231.07l.08,1.76s.28,1.04,1.72.4"/><path class="cls-43" d="m60.02,226.85s-.08.02-.13.03l-3.18.36c-.35.04-.67-.22-.72-.57-.04-.35.21-.67.57-.72l3.18-.36c.36-.04.67.22.72.57.03.31-.16.59-.44.69Z"/><path class="cls-43" d="m52.43,227.95s-.08.02-.13.03l-1.94.22c-.36.04-.68-.22-.72-.57-.04-.36.22-.68.57-.72l1.94-.22c.36-.04.68.22.72.57.04.31-.16.59-.44.69Z"/><line class="cls-12" x1="56.25" y1="235.85" x2="57.56" y2="235.48"/></g><path class="cls-43" d="m62.96,219.75s-16.1,10.04-19.67,3.28c-3.58-6.77,3.56-11.96,8.49-10.12,3.76,1.4,11.18,6.85,11.18,6.85Z"/><path class="cls-43" d="m52.44,213.18s2.33.93,4.48-.68c3.21-2.4,9.17-.66,10.96,3.5,1.79,4.16-6.02,3.75-6.02,3.75l-9.42-2.3v-4.27Z"/></g></g><g><g><g><path class="cls-44" d="m358.37,309.53l-3.88,29.01s3.75,10.87.33,24.71c-3.42,13.83-4.13,23.06-4.13,23.06l-7.69-.5v-48.32l.33-17.37,15.05-10.58Z"/><path class="cls-22" d="m342.99,385.8v-16.72s4.71,1.91,10.47,0l-2.78,17.22-7.69-.5Z"/><g><path class="cls-24" d="m342.97,383.95l-8.28,3.58-4.15.84c-1.91.38-3.33,1.98-3.5,3.92l-.08.91,24.97-.04-.65-9.21h-8.31Z"/><path d="m352.02,393.31l-25.16.04v-1.47c0-.29.23-.53.52-.53l24.63-.03v1.99"/></g></g><g><path class="cls-44" d="m369.42,337.41s-.64,14.86,2.41,22.73c3.05,7.87,7.92,27.5,7.92,27.5l6.83-.06s-3.08-39.65-5.73-50.16l-3.88-23.78-13.84,6.83,6.29,16.95Z"/><path class="cls-22" d="m386.57,385.51l-1.61-16.42s-4.71,1.91-10.47,0l4.39,16.92,7.69-.5Z"/><g><path class="cls-24" d="m386.79,383.95l8.28,3.58,4.15.84c1.91.38,3.33,1.98,3.5,3.92l.08.91-24.97-.04.65-9.21h8.31Z"/><path d="m377.74,393.31l25.16.04v-1.47c0-.29-.23-.53-.52-.53l-24.63-.03v1.99"/></g></g><g><path class="cls-40" d="m377.83,310.38c.48-7.75-3.22-13.58-3.22-13.58l-31.47-.68-1.78,29.41,16.87.64,1.14-17.2,3.02,17.2,19.03-.64-3.6-15.16Z"/><polyline class="cls-13" points="359.38 308.98 359.38 308.98 353.75 303.72"/></g></g><g><g><path class="cls-28" d="m356.77,249.13s-12.5-2.5-15.69,1.66c-5.18,6.75,2.06,45.34,2.06,45.34l31.47.68s5.6-23.44,5.02-35.4c-.16-3.2-2.17-6.01-5.11-7.28-3.53-1.52-8.77-3.63-12.7-4.6l-5.05-.4Z"/><path class="cls-30" d="m372.07,284.3s12.97.57,11.26-19.14l-7.49-2.33-3.77,21.47Z"/><path class="cls-28" d="m370.38,252.42s14.85,2.26,14.57,21.15l-9.03-3.34-5.54-17.81Z"/></g><g><g><path class="cls-44" d="m365.87,249.51l-.07-16.85-12.08.05.06,16.85c.02,3.34,2.73,6.03,6.07,6.01h0c3.34-.02,6.03-2.73,6.01-6.07Z"/><path class="cls-31" d="m366.24,233.55s-1.27,14.44-12.44,14.21l-.02-7.23,12.46-6.98Z"/></g><g><path class="cls-27" d="m359.05,221.03c4.56.45,3.35,7.69,3.35,7.69l6,1.32c-.39,7.3-3.49,10.54-8.84,10.8-6.39.32-12.62-5.98-14.05-13.08-.74-3.68,1.21-6.63,1.21-6.63.15-.01,7.82-.55,12.34-.11Z"/><path class="cls-31" d="m343.4,231.6c-.41,2.38,1.66,4.39,4.03,3.9,1.31-.27,2.37-1.37,2.6-2.69.41-2.38-1.66-4.39-4.03-3.9-1.31.27-2.37,1.37-2.6,2.69Z"/><path class="cls-44" d="m355.6,221.44h.37c5.51,0,9.98,4.47,9.98,9.98v9.24c0,2.55-2.07,4.61-4.61,4.61h-13.14c-1.43,0-2.58-1.16-2.58-2.58v-11.27c0-5.51,4.47-9.98,9.98-9.98Z" transform="translate(715.27 460.99) rotate(179.08)"/><g><path class="cls-27" d="m355.12,232.23c.05.48.47.84.95.79.48-.05.84-.47.79-.95-.05-.48-.47-.84-.95-.79-.48.05-.84.47-.79.95Z"/><path class="cls-27" d="m347.62,232.32c.04.48.47.84.96.79.48-.05.84-.47.79-.95-.04-.48-.47-.84-.95-.79-.48.05-.84.47-.79.95Z"/><path class="cls-31" d="m352.08,237.34c-.34,0-.64-.09-.89-.26-.53-.34-.62-.89-.62-.95l.15-3.7c0-.19.15-.33.36-.33.19,0,.34.17.33.36l-.16,3.64h0s.07.25.32.41c.28.18.72.18,1.29.02.19-.05.38.05.43.24.05.19-.05.38-.24.43-.36.11-.69.15-.99.15Z"/><path class="cls-27" d="m358.43,229.56c-.05.01-.11.02-.16.02l-3.97.13c-.44.01-.81-.33-.83-.78-.01-.44.33-.81.78-.83l3.97-.13c.44-.01.81.33.83.78.01.39-.25.72-.62.81Z"/><path class="cls-27" d="m349.42,229.93c-.05.01-.11.02-.16.02l-2.43.09c-.44.02-.82-.33-.83-.77-.02-.44.33-.82.77-.83l2.43-.09c.44-.02.82.33.83.77.01.39-.25.72-.61.81Z"/><line class="cls-18" x1="352.59" y1="239.18" x2="354.8" y2="238.98"/></g><path class="cls-27" d="m356.51,215.9c-4.12.2-7.91,1.99-9.8,5.23l-.47,1.63s2.17,1.78,10.14-.5c.98-.28,1.85-.46,2.62-.56,1.17-.15,2.35.43,2.84,1.51,1.2,2.61.67,6.63.67,6.63l5.88.2c.2-1.1.3-2.24.24-3.41-.36-7.23-5.73-11.04-12.12-10.72Z"/><path class="cls-44" d="m364.59,230.85c-.89,2.58,1.06,5.19,3.79,5.07,1.51-.07,2.89-1.1,3.38-2.53.89-2.58-1.06-5.19-3.79-5.07-1.51.07-2.89,1.09-3.38,2.53Z"/></g></g><g><g><g><path class="cls-30" d="m360.06,257.79l18.96,6.26-.72,7.69s-15.43,2.41-34.37-6.99l16.12-6.96Z"/><path class="cls-30" d="m379.03,264.05l27.54,6.98-.76,4.04s-26.39,1.54-30.07-4.34l3.29-6.69Z"/><path class="cls-30" d="m405.26,274.35s-1.04,2.4,4.37,4.12c0,0,3.9.71,4.69,4.46.15.7.75,1.2,1.46,1.2h0c.89,0,1.58-.77,1.49-1.66-.21-2.04-1.47-4.87-4.12-7.3-3.58-3.3-6.59-4.13-6.59-4.13l-1.31,3.32Z"/><polygon class="cls-28" points="363.18 257.41 352.02 249.04 342.92 252.06 342.06 264.9 343.94 266.71 363.18 257.41"/></g><path class="cls-5" d="m340.09,260.68s2.15,4.99,3.72,5.72l2.19-.69"/><path class="cls-5" d="m352.86,250.42s8.27,4.9,10.32,6.98l-1.69.82"/></g><g><path class="cls-44" d="m372.51,247.82s-1.44,9.24-3.47,15.96c-1.86,6.16-2.01,15.18.87,19.77.46.73,1.36,1.05,2.16.75,2.82-1.05,9.12-4.58,7.54-14.8-2.03-13.05-1.45-21.2-1.45-21.2l-5.65-.48Z"/><g><path class="cls-44" d="m372.51,247.82l-2.55-6.93c-.64-1.74-.04-3.69,1.46-4.77,1.44-1.03,3.43-1.97,5.74-1.7,1.53.18,2.72,1.4,2.91,2.92.3,2.47.33,6.71-1.92,10.96l-5.65-.48Z"/><path class="cls-44" d="m379.02,236.7h.84c.61,0,1.17.32,1.47.85l.37.65c.76,1.32.88,2.92.3,4.33-.58,1.4-1.7,3.32-3.84,5.78l-1.2-9.01,2.05-2.59Z"/></g></g></g></g></g></g></svg>