<?xml version="1.0" encoding="UTF-8"?><svg id="Layer_2" xmlns="http://www.w3.org/2000/svg" viewBox="0 0 139.71 178.07"><defs><style>.cls-1{stroke:#cf9580;stroke-linecap:round;stroke-linejoin:round;stroke-width:.62px;}.cls-1,.cls-2,.cls-3{fill:none;}.cls-4{fill:#e7e4e1;}.cls-5{fill:#de6769;}.cls-6{fill:#1f2326;}.cls-2{stroke:#ce9e80;stroke-width:.68px;}.cls-2,.cls-3{stroke-miterlimit:10;}.cls-7{fill:#d9ac91;}.cls-8{fill:#cf9580;}.cls-9{fill:#c64b59;}.cls-3{stroke:#ac384b;stroke-width:.76px;}.cls-10{fill:#ba4357;}.cls-11{fill:#e6bda0;}.cls-12{fill:#bd4751;}</style></defs><g id="OBJECTS"><g><g><g><polygon class="cls-11" points="66.26 17.01 73.17 32.76 62.41 37.11 56.43 23.98 66.26 17.01"/><path class="cls-11" d="m50.34,9.37l-.84,11.46c-.86,4.8,3.49,10.54,8.17,9.19l7.35-2.43-4.23-19.7c-.51-.74-8.75-3.31-10.45,1.48Z"/><path class="cls-11" d="m50.43,15.5l-2.57,3.7c-.35.5-.26,1.13.21,1.53l1.42.7.93-5.92Z"/><path class="cls-6" d="m63.76,18.79s-1.12,5.57,5.66,5.42l3.64-5.39c1.54-2.74,1.88-6.03.76-8.96-.9-2.37-2.68-4.95-6.14-6.76-8.18-4.29-16.91,2.55-17.34,6.27l8.07-.27,5.35,9.69Z"/><path class="cls-6" d="m57.64,6.88s-1.79,6.36,3.8,7.71l-3.8-7.71Z"/><polygon class="cls-6" points="59.3 11.96 59.06 16.45 62.88 16.82 61.97 12.56 59.3 11.96"/><path class="cls-11" d="m60.86,15.66c-.79,2.46,1.1,4.89,3.68,4.73,1.43-.09,2.72-1.09,3.16-2.45.79-2.46-1.1-4.89-3.68-4.73-1.43.09-2.72,1.09-3.16,2.45Z"/><path class="cls-8" d="m58.93,29.47s4.94-1.98,5.7-4.93c0,0-.35,5.65-3.96,8.74l-1.73-3.81Z"/><g><path class="cls-6" d="m51.19,16.25c.05.42.43.73.85.68.42-.05.73-.43.68-.85-.05-.42-.43-.73-.85-.68-.42.05-.73.43-.68.85Z"/><path class="cls-6" d="m54.38,13.34s-.09.01-.14.01l-2.97-.04c-.39,0-.7-.32-.7-.71,0-.39.32-.7.71-.7l2.97.04c.39,0,.7.32.7.71,0,.34-.24.62-.56.69Z"/><path class="cls-1" d="m49.64,23.41s1.62.27,2.67-1.04"/></g></g><g><path class="cls-12" d="m71.8,11.59l13.45,1.67c.51.06.96-.3,1.01-.81h0c.05-.49-.31-.93-.8-.99l-15.74-1.85,2.07,1.98Z"/><path class="cls-5" d="m74.35,11.92l-24.01-2.55s-.24-10.3,14.46-9.31c0,0,9.67,1.34,9.56,11.86Z"/><path class="cls-6" d="m52.5,3.79s3.32.37,2.53,4.26l-4.45-.45s.7-2.67,1.92-3.81Z"/></g></g><g><g><path class="cls-7" d="m70.73,49.35s-2.53,5.63-8.34,6.86c0,0-9.83,10.07-14.17,13.97-3.52,3.15-8.17,2.18-8.7-2.52h0c-.17-1.49.25-2.99,1.16-4.19l17.24-22.32,12.82,8.2Z"/><path class="cls-7" d="m48.36,63.89l-17.77-20.91s-5.02,2.52-4.47,3.9c5.56,14.04,14.66,23.73,14.66,23.73l7.58-6.73Z"/><path class="cls-7" d="m25.39,34.14c-3.61.66-6.01,4.11-5.35,7.73s4.11,6.01,7.73,5.35c3.61-.66,6.01-4.11,5.35-7.73-.66-3.61-4.11-6.01-7.73-5.35Z"/><path class="cls-7" d="m57.98,38.7s-7.27,2.5-7.49,10.47c-.18,6.41,7.67,6.79,7.67,6.79l-.18-17.26Z"/><path class="cls-2" d="m44.1,58.97s2.16,2.45,2.21,6.74"/></g><g><path class="cls-11" d="m64.21,35.5l-6.23,3.2s-10.07,21.29-2.65,42.65l19.73-9.62s9.34-13.77,7.4-26.2c0,0-1.22-11.84-7.06-12.66-5.84-.82-11.18,2.63-11.18,2.63Z"/><path class="cls-4" d="m55.32,81.34l22.99-4.47-1.91-5.25s3.82-5.94,5.64-16.46c0,0-4.7,10.47-12.08.9-7.38-9.58-1.12-21.33,5.7-23.28l-2.39-.07s-2.69-.41-7.2,6.64-4.82,7.22-6.27,6.99c-2.34-.37-1.58-6.72-.08-8.59l-1.74.86s-2.98,2.77-6.1,14.94c0,0-1.98,15.8,3.44,27.78Z"/></g><g><path class="cls-11" d="m75.39,32.86s6.15-.47,10.01,4.05c0,0,13.54,3.82,19.04,5.78,4.45,1.59,5.82,6.14,1.94,8.85h0c-1.23.86-2.75,1.21-4.23.98l-27.84-4.49,1.08-15.18Z"/><polygon class="cls-11" points="98.85 45.57 90.06 72.87 95.62 74.94 108.38 49.02 98.85 45.57"/><path class="cls-11" d="m85.32,82.53c2.3,2.86,6.48,3.32,9.35,1.02,2.86-2.3,3.32-6.48,1.02-9.35-2.3-2.86-6.48-3.32-9.35-1.02-2.86,2.3-3.32,6.48-1.02,9.35Z"/><line class="cls-2" x1="82.81" y1="49.41" x2="74.31" y2="48.04"/><path class="cls-2" d="m96.88,51.68s2.02-1.95,4.04-1.36"/></g></g><g><g><path class="cls-11" d="m68.02,110.92s4.92,12.76,16.82,25.33c1.26,1.34,3.37,1.42,4.76.22l32.8-27.23-5.1-4.65s-4.19,2.94-8.67,4.34c-4.48,1.4-15,4.55-19.1,11.02-4.32-18.03-4.41-19.02-5.38-21.66l-16.13,12.64Z"/><path class="cls-10" d="m81.94,83.98s4.33,9.35,6.31,18.78l-20.23,8.15-3.72-9.24,17.64-17.69Z"/><path class="cls-4" d="m116.2,105.33l-11.73,4.94s4.13,3.96,5.53,9.1l11.3-9.04-5.1-5Z"/><g><path class="cls-6" d="m120.67,112.47l7.93,3.17,3.82,3.22c1.76,1.48,4.28,1.62,6.19.35l.9-.59-16.95-21.25-8.03,7.36,6.14,7.74Z"/><polyline points="122.62 97.18 139.71 118.59 137.87 120.06 120.78 98.64 122.62 97.18"/></g></g><g><path class="cls-11" d="m45.22,98.13l-12.12,17.74c-.53.73-.94,1.55-1.19,2.43l-12.37,46.79,7.57,2.48s5.31-12,7.58-15.8c2.03-3.39,9.43-14.37,9.55-27.81l21.79-17.94-20.82-7.88Z"/><polygon class="cls-9" points="55.32 81.34 57.37 90.42 78.84 86.1 78.31 76.88 55.32 81.34"/><path class="cls-9" d="m57.44,83.46c-.45.35-12.22,14.66-12.22,14.66l15.77,15.78s25.6-14.86,22.17-26.6c0,0-1.58-5.28-4.84-10.43l-20.87,6.58Z"/><path class="cls-3" d="m83.42,88.26s1.58,6.74-11.45,17.92l-4.48,3.44"/><path class="cls-4" d="m27.12,167.56l5.3-11.45s-5.46,0-9.63-3.33l-3.77,13.62,8.09,1.15Z"/><g><path class="cls-6" d="m19.45,164l-8.42,1.42-4.94-.76c-2.27-.35-4.5.84-5.47,2.92l-.46.97,25.54,9.32,3.02-10.46-9.28-3.41Z"/><polyline points="25.74 178.07 0 168.68 .81 166.47 26.54 175.86 25.74 178.07"/></g></g></g></g></g></svg>