<?xml version="1.0" encoding="UTF-8"?><svg id="Layer_2" xmlns="http://www.w3.org/2000/svg" viewBox="0 0 167.81 156.6"><defs><style>.cls-1{fill:#ecb393;}.cls-2{fill:#706f8e;}.cls-3{fill:#f6ba99;}.cls-4{fill:#393762;}.cls-5{fill:#eaa888;}.cls-6{fill:#ecedeb;}.cls-7{fill:#7eb9f5;}.cls-8{fill:#da5955;}</style></defs><g id="Objects"><g><ellipse class="cls-6" cx="79.64" cy="136.27" rx="79.64" ry="15.85"/><g><circle class="cls-2" cx="32.19" cy="93.44" r="30.78" transform="translate(-56.64 50.13) rotate(-45)"/><circle class="cls-4" cx="34.88" cy="94.42" r="30.78" transform="translate(-56.55 52.32) rotate(-45)"/><circle class="cls-2" cx="34.88" cy="94.42" r="12.21"/><path class="cls-5" d="m82.52,62.37s-16.58,6.46-25.53,13.21c-8.95,6.75-4.84,12.91-3.37,16.58,1.47,3.67,12.47,28.32,12.47,28.32,0,0-.88,2.05-2.64,3.37-1.76,1.32-8.51,4.11-9.24,5.43-.73,1.32,4.7,2.2,7.78,2.2s11.45-1.47,14.38-1.61c2.93-.15,2.2-3.37,1.76-4.4-.44-1.03-2.64-5.72-3.08-8.22-.44-2.49-3.08-11.59-3.67-16.73-.59-5.14-3.82-13.5-3.82-13.5,0,0,11-5.28,20.69-7.78,9.68-2.49,21.28-13.21,21.42-13.65.15-.44-3.08-4.55-9.24-4.84-6.16-.29-14.97-.29-17.9,1.61Z"/><path class="cls-8" d="m66.09,120.48s-.88,2.05-2.64,3.37c-1.76,1.32-8.51,4.11-9.24,5.43-.73,1.32,4.7,2.2,7.78,2.2s11.45-1.47,14.38-1.61c2.93-.15,2.2-3.37,1.76-4.4-.16-.38-.56-1.25-1.02-2.32h-6.28c-1.71-3.86-4.73-2.67-4.73-2.67Z"/><path class="cls-8" d="m56.11,33.32s-3.37,2.79-3.23,4.11c.15,1.32,4.7,17.75,5.28,20.98.59,3.23,7.92,5.14,11.74,5.14s5.28-.59,9.83,0c4.55.59,17.75,3.52,17.75,3.52,0,0,22.01,6.9,28.61,5.28,6.6-1.61,9.1-9.83,6.31-18.05s-7.34-12.62-14.23-12.62-11.15,5.43-17.02,2.64c-5.87-2.79-9.1-5.87-13.5-9.54-4.4-3.67-11.45-8.36-16.14-8.66-4.7-.29-6.9-.29-6.9-.29,0,0-7.48,4.55-8.51,7.48Z"/><path class="cls-3" d="m49.8.59s-6.16.59-8.66,6.75c-2.49,6.16-1.47,9.68-.59,10.56.88.88,0,4.99,0,5.87s2.2,1.91,2.2,1.91c0,0,2.35,4.4,3.08,4.84s2.49-.29,3.67-.44c1.17-.15,1.91-.44,1.91-.44l5.28,6.02s.59,11,3.37,13.94c2.79,2.93,2.93.15,2.49-3.67-.44-3.82,1.03-11.45,1.61-14.23s1.61-5.72,1.61-5.72c0,0-2.93-1.76-3.23-4.11-.29-2.35.29-5.43,1.32-6.9,1.03-1.47.15-7.63-2.05-12.03-2.2-4.4-9.83-2.64-12.03-2.35Z"/><path class="cls-4" d="m68.58,2.5c-3.22-.58-5.54.65-6.39,1.21-.12-.26-.24-.52-.36-.77-2.2-4.4-9.83-2.64-12.03-2.35,0,0-6.16.59-8.66,6.75-.2.51-.38.99-.54,1.46,1.3-.92,3.69-2.19,6.85-1.9,4.84.44,1.91,6.16,3.67,7.19,1.76,1.03.59-2.64,4.26-1.91,3.67.73,2.93,4.7,1.61,5.28-1.32.59-1.91,1.03-1.91,1.03,0,0,3.08,2.64,5.87,2.64.48,0,1.01-.15,1.55-.38-.02-1.41.22-2.93.63-4.17.14.19.3.34.47.44,2.49,1.47,7.04.59,7.63-1.76.59-2.35,1.47-12.03-2.64-12.77Z"/><path class="cls-3" d="m76.36,28.47s-2.93-.44-6.6,5.58c-3.67,6.02-1.32,14.23,4.7,17.46,6.02,3.23,17.17-5.43,17.31-8.22.15-2.79-1.61-9.83-15.41-14.82Z"/><path class="cls-4" d="m122.54,122.65c-.17,0-.34-.03-.51-.08l-86.59-27.45c-.89-.28-1.39-1.24-1.11-2.13.28-.9,1.24-1.39,2.13-1.11l86.59,27.45c.89.28,1.39,1.24,1.11,2.13-.23.72-.9,1.19-1.62,1.19Z"/><path class="cls-7" d="m132.41,54.3c-2.25-6.62-5.63-10.76-10.47-12.12.09,3.1-.12,7.73-1.71,11.53-2.64,6.31-12.47,11.59-17.75,13.94-.42.19-.8.36-1.19.54,6.59,1.88,19.92,5.35,24.81,4.16,6.6-1.61,9.1-9.83,6.31-18.05Z"/><path class="cls-7" d="m123.46,53.12s-15.55,3.67-26.56,11.59c-6.19,4.46-12.4,13.76-9.9,21.7,1.71,5.41,2.81,11,3.98,16.56,1.84,8.76,3.61,17.53,5.33,26.31,0,0-4.7,2.35-7.04,4.11s-7.92,2.93-6.31,4.99c1.61,2.05,17.61.59,20.25.15,2.64-.44,4.4-1.61,4.55-2.49.15-.88-2.89-7.8-3.23-9.83-.29-1.76-2.35-7.34-2.64-22.74-.07-3.71.59-9.98-.59-12.91-1.17-2.93-2.2-5.43-2.2-5.43,0,0,22.16-8.22,28.61-12.91,6.46-4.7,7.04-12.33,4.7-16.87"/><path class="cls-1" d="m128.16,71.84c-.8-2.51-2.37-5.48-5.44-8.3-3.69-3.4-8.76-5.05-12.89-5.85-4.26,1.79-8.91,4.12-12.94,7.02-6.19,4.46-12.4,13.76-9.9,21.7,1.71,5.41,2.81,11,3.98,16.56,1.84,8.76,3.61,17.53,5.33,26.31,0,0-4.7,2.35-7.04,4.11s-7.92,2.93-6.31,4.99c1.61,2.05,17.61.59,20.25.15,2.64-.44,4.4-1.61,4.55-2.49.15-.88-2.89-7.8-3.23-9.83-.29-1.76-2.35-7.34-2.64-22.74-.07-3.71.59-9.98-.59-12.91-1.17-2.93-2.2-5.43-2.2-5.43,0,0,22.16-8.22,28.61-12.91.16-.11.3-.24.45-.36Z"/><path class="cls-3" d="m103.21,138.52c2.64-.44,4.4-1.61,4.55-2.49.15-.88-2.89-7.8-3.23-9.83-.07-.44-.25-1.11-.49-2.1-.99.27-2.05.46-3.18.49-2.54.07-4.39-.38-5.66-.87.37,1.85.74,3.71,1.11,5.56,0,0-4.7,2.35-7.04,4.11s-7.92,2.93-6.31,4.99c1.61,2.05,17.61.59,20.25.15Z"/><path class="cls-8" d="m100.42,129.87c-.88-2.05-4.11-.59-4.11-.59,0,0-4.7,2.35-7.04,4.11s-7.92,2.93-6.31,4.99c1.61,2.05,17.61.59,20.25.15,2.64-.44,4.4-1.61,4.55-2.49.08-.48-.77-2.72-1.62-5-1.29.65-2.72,1.18-3.95,1.18-3.08,0-.88-.29-1.76-2.35Z"/><path class="cls-5" d="m53.94,98.5c.45-1.2,1.8-1.35,1.8-1.35,0,0,.04-.05.09-.15-.4-.91-.76-1.73-1.07-2.46-1.43-1.32-2.94-1.77-3.36-2.48-.2-.34-.06-2.31.4-4.82-.87-3.12-.75-6.91,3.7-10.95,2.28-5.25,3.48-12.19,3.61-14.93.02-.38.05-.83.07-1.22-.51-.51-.86-1.02-.97-1.62-.54-2.96-4.26-17.85-5.14-21.62-1.07,1.4-3.29,4.58-3.63,7.07-.45,3.3.45,8.24.9,11.09.45,2.85-.45,11.54-1.35,14.39-.9,2.85-2.25,9.14-1.95,12.14.3,3-1.35,13.79-1.65,15.44-.3,1.65.6,3,2.25,4.2,1.65,1.2,4.2,3.15,5.54,2.85,1.35-.3,1.8-2.55,1.8-3s-1.5-1.35-1.05-2.55Z"/><g><circle class="cls-2" cx="129.04" cy="119.81" r="35.66" transform="translate(-20.63 27.05) rotate(-11.08)"/><circle class="cls-4" cx="132.16" cy="120.95" r="35.66" transform="translate(-25.1 35.13) rotate(-13.84)"/><circle class="cls-2" cx="132.16" cy="120.95" r="14.15"/><path class="cls-4" d="m135.27,120.95c0-1.72-1.39-3.11-3.11-3.11s-3.11,1.39-3.11,3.11,1.39,3.11,3.11,3.11,3.11-1.39,3.11-3.11Z"/></g><path class="cls-3" d="m71.81,34.2s-4.11,1.61-3.37,9.39c.73,7.78,4.84,12.62,6.16,17.17,1.32,4.55,0,10.71,3.52,16.58,3.52,5.87,8.07,25.09,8.07,25.83s-4.26,3.08-4.26,4.26-.15,5.87,1.17,6.6,5.43,1.61,6.75,1.32.73-2.05.73-2.93,2.49-.88,3.23-.73c.73.15,1.32-2.64.29-5.58-1.03-2.93-4.11-25.24-4.99-30.08-.88-4.84-.73-15.11-2.64-18.64-1.91-3.52-4.11-7.92-4.26-10.56-.15-2.64-.44-6.02-.44-6.02"/></g></g></g></svg>